<svg width="68" height="68" viewBox="0 0 68 68" fill="none" xmlns="http://www.w3.org/2000/svg">
<path d="M34.0034 62.1288H33.0034V62.1302C28.5766 62.0084 24.3776 61.0806 20.561 59.5034L20.0021 59.2724L19.5379 59.6602C18.0148 60.9326 15.4907 62.6946 12.5229 64.1757C9.40034 65.7218 5.7233 67 2.13168 67C1.75614 67 1.31838 66.7382 1.10575 66.1551C0.890004 65.5634 1.01611 64.9205 1.37031 64.5157L1.41012 64.4702L1.41017 64.4702C1.43643 64.4402 1.45922 64.4117 1.47421 64.3928C1.48419 64.3802 1.49671 64.3641 1.50653 64.3516L1.51635 64.339C1.5408 64.3078 1.56088 64.2828 1.58278 64.2578L1.59577 64.2429L1.60816 64.2276C1.78525 64.0083 2.0135 63.6981 2.2867 63.3265L2.28675 63.3265L2.29343 63.3172C2.85818 62.5302 3.62815 61.3675 4.38485 59.9213C5.75541 57.3212 7.07462 53.8763 7.33912 49.9789L7.36475 49.6011L7.13379 49.3011C3.27538 44.2895 1.0069 38.1733 1.0069 31.5644C1.0069 14.749 15.7067 1 34.0034 1C52.3002 1 67 14.749 67 31.5644C67 48.3797 52.3002 62.1288 34.0034 62.1288ZM20.7626 27.4721C19.7916 26.3625 18.4438 25.7083 17.0052 25.7083C15.5666 25.7083 14.2187 26.3625 13.2477 27.4721C12.2805 28.5774 11.7556 30.0512 11.7556 31.5644C11.7556 33.0776 12.2805 34.5514 13.2477 35.6567C14.2187 36.7663 15.5666 37.4204 17.0052 37.4204C18.4438 37.4204 19.7916 36.7663 20.7626 35.6567C21.7299 34.5514 22.2547 33.0776 22.2547 31.5644C22.2547 30.0511 21.7299 28.5774 20.7626 27.4721ZM37.7609 27.4721C36.7899 26.3625 35.442 25.7083 34.0034 25.7083C32.5648 25.7083 31.217 26.3625 30.246 27.4721C29.2787 28.5774 28.7539 30.0511 28.7539 31.5644C28.7539 33.0776 29.2787 34.5514 30.246 35.6567C31.217 36.7663 32.5648 37.4204 34.0034 37.4204C35.442 37.4204 36.7899 36.7663 37.7609 35.6567C38.7282 34.5514 39.253 33.0776 39.253 31.5644C39.253 30.0512 38.7282 28.5774 37.7609 27.4721ZM47.2443 27.4721C46.277 28.5774 45.7522 30.0511 45.7522 31.5644C45.7522 33.0776 46.277 34.5514 47.2443 35.6567C48.2153 36.7663 49.5631 37.4204 51.0017 37.4204C52.4403 37.4204 53.7882 36.7663 54.7592 35.6567C55.7264 34.5514 56.2513 33.0776 56.2513 31.5644C56.2513 30.0512 55.7264 28.5774 54.7592 27.4721C53.7882 26.3625 52.4403 25.7083 51.0017 25.7083C49.5631 25.7083 48.2153 26.3625 47.2443 27.4721Z" stroke="white" stroke-opacity="0.85" stroke-width="2"/>
</svg>
