<svg width="68" height="68" viewBox="0 0 68 68" fill="none" xmlns="http://www.w3.org/2000/svg">
<path d="M66.0023 36.7718L65.7548 37.0546V37.0698L49.0014 56.2156C47.7396 57.6576 45.7517 57.6576 44.4898 56.2156C43.1595 54.6953 43.1595 52.177 44.4898 50.6567L54.2388 39.5157L55.69 37.8571H53.4862H25.5012C23.8238 37.8571 22.251 36.2639 22.251 34C22.251 31.7361 23.8238 30.1429 25.5012 30.1429H53.4862H55.69L54.2388 28.4843L44.4898 17.3433C43.1595 15.823 43.1595 13.3047 44.4898 11.7844C45.7517 10.3424 47.7396 10.3424 49.0014 11.7844L66.0023 31.213C67.3326 32.7333 67.3326 35.2515 66.0023 36.7718ZM24.5012 4.85714C24.5012 7.12102 22.9284 8.71429 21.251 8.71429H12.7506C9.72623 8.71429 7.50041 11.4621 7.50041 14.5714V53.4286C7.50041 56.5379 9.72623 59.2857 12.7506 59.2857H21.251C22.9284 59.2857 24.5012 60.879 24.5012 63.1429C24.5012 65.4067 22.9284 67 21.251 67H12.7506C6.38471 67 1 61.0505 1 53.4286V14.5714C1 6.94951 6.38471 1 12.7506 1H21.251C22.9284 1 24.5012 2.59326 24.5012 4.85714Z" stroke="white" stroke-opacity="0.85" stroke-width="2"/>
</svg>
