<svg width="68" height="68" viewBox="0 0 68 68" fill="none" xmlns="http://www.w3.org/2000/svg">
<path d="M66.987 33.8286L66.9822 33.8777V33.927C66.9822 35.8614 65.5667 37.1894 64.2034 37.1894H60.4247H59.4208L59.4247 38.1933L59.5073 59.4618C59.5073 59.4624 59.5073 59.4631 59.5073 59.4637C59.5072 59.7786 59.4864 60.1019 59.4531 60.4391L59.4483 60.4881V60.5374V62.6885C59.4483 65.1844 57.6752 67 55.7248 67H53.8355C53.6972 67 53.6182 66.9991 53.5474 66.9919L53.4567 66.9826L53.3657 66.9899C53.2473 66.9994 53.1223 67 52.9511 67C52.9506 67 52.9502 67 52.9498 67L49.1155 66.9867H49.112H46.2779C44.3276 66.9867 42.5545 65.1711 42.5545 62.6753V59.4884V50.99C42.5545 48.201 40.5252 45.7409 37.7757 45.7409H30.2182C27.4688 45.7409 25.4395 48.201 25.4395 50.99V59.4884V62.6753C25.4395 65.1711 23.6664 66.9867 21.716 66.9867H18.882H15.115C14.9816 66.9867 14.8419 66.9767 14.6584 66.963L14.5743 66.9567L14.4904 66.9645C14.3406 66.9786 14.2456 66.9867 14.1585 66.9867H12.2691C10.3188 66.9867 8.5457 65.1711 8.5457 62.6753V47.8032C8.5457 47.6729 8.54659 47.5912 8.55266 47.5297L8.55751 47.4807V47.4314V38.1761V37.1761H7.55751H3.77875C2.31447 37.1761 1 35.8805 1 33.9137C1 32.95 1.27366 32.1386 1.90663 31.4157L32.1463 1.77645L32.1708 1.75245L32.1936 1.72682C32.7468 1.10471 33.347 1 34.0442 1C34.6743 1 35.3492 1.20427 35.8315 1.65101L65.9802 31.4513L65.9819 31.4529C66.7635 32.222 67.0688 33.0007 66.987 33.8286Z" stroke="white" stroke-opacity="0.85" stroke-width="2"/>
</svg>
