<svg width="68" height="68" viewBox="0 0 68 68" fill="none" xmlns="http://www.w3.org/2000/svg">
<path d="M57.3345 57.3345C51.1458 63.5232 42.7521 67 34 67C25.2479 67 16.8542 63.5232 10.6655 57.3345C4.47678 51.1458 1 42.7521 1 34C1 25.2479 4.47678 16.8542 10.6655 10.6655C16.8542 4.47678 25.2479 1 34 1C42.7521 1 51.1458 4.47678 57.3345 10.6655C63.5232 16.8542 67 25.2479 67 34C67 42.7521 63.5232 51.1458 57.3345 57.3345ZM30.875 37.125V43.625H28.6875C26.3688 43.625 24.5 45.4938 24.5 47.8125C24.5 50.1312 26.3688 52 28.6875 52H39.3125C41.6312 52 43.5 50.1312 43.5 47.8125C43.5 45.4938 41.6312 43.625 39.3125 43.625H39.25V32.9375C39.25 30.6188 37.3812 28.75 35.0625 28.75H28.6875C26.3688 28.75 24.5 30.6188 24.5 32.9375C24.5 35.2562 26.3688 37.125 28.6875 37.125H30.875ZM37.7123 17.5377C36.7277 16.5531 35.3924 16 34 16C32.6076 16 31.2723 16.5531 30.2877 17.5377C29.3031 18.5223 28.75 19.8576 28.75 21.25C28.75 22.6424 29.3031 23.9777 30.2877 24.9623C31.2723 25.9469 32.6076 26.5 34 26.5C35.3924 26.5 36.7277 25.9469 37.7123 24.9623C38.6969 23.9777 39.25 22.6424 39.25 21.25C39.25 19.8576 38.6969 18.5223 37.7123 17.5377Z" stroke="white" stroke-opacity="0.85" stroke-width="2"/>
</svg>
