<svg width="72" height="44" viewBox="0 0 72 44" fill="none" xmlns="http://www.w3.org/2000/svg">
<path d="M1 22C1 10.3891 10.2445 1 21.6 1H50.4C61.7555 1 71 10.3891 71 22C71 33.6109 61.7555 43 50.4 43H21.6C10.2445 43 1 33.6109 1 22ZM59.6955 12.5585C58.6656 11.5095 57.2647 10.9167 55.8 10.9167C54.3353 10.9167 52.9344 11.5095 51.9045 12.5585C50.8751 13.6069 50.3 15.0251 50.3 16.5C50.3 17.9749 50.8751 19.3931 51.9045 20.4415C52.9344 21.4905 54.3353 22.0833 55.8 22.0833C57.2647 22.0833 58.6656 21.4905 59.6955 20.4415C60.7249 19.3931 61.3 17.9749 61.3 16.5C61.3 15.0251 60.7249 13.6069 59.6955 12.5585ZM44.7045 23.5585C43.6751 24.6069 43.1 26.0251 43.1 27.5C43.1 28.9749 43.6751 30.3931 44.7045 31.4415C45.7344 32.4905 47.1353 33.0833 48.6 33.0833C50.0647 33.0833 51.4656 32.4905 52.4955 31.4415C53.5249 30.3931 54.1 28.9749 54.1 27.5C54.1 26.0251 53.5249 24.6069 52.4955 23.5585C51.4656 22.5095 50.0647 21.9167 48.6 21.9167C47.1353 21.9167 45.7344 22.5095 44.7045 23.5585ZM21.6 11.8333C19.5342 11.8333 17.9 13.5245 17.9 15.5833V18.25H15.3C13.2342 18.25 11.6 19.9411 11.6 22C11.6 24.0589 13.2342 25.75 15.3 25.75H17.9V28.4167C17.9 30.4755 19.5342 32.1667 21.6 32.1667C23.6658 32.1667 25.3 30.4755 25.3 28.4167V25.75H27.9C29.9658 25.75 31.6 24.0589 31.6 22C31.6 19.9411 29.9658 18.25 27.9 18.25H25.3V15.5833C25.3 13.5245 23.6658 11.8333 21.6 11.8333Z" stroke="white" stroke-opacity="0.85" stroke-width="2"/>
</svg>
