<?xml version="1.0" standalone="no"?>
<!DOCTYPE svg PUBLIC "-//W3C//DTD SVG 20010904//EN"
 "http://www.w3.org/TR/2001/REC-SVG-20010904/DTD/svg10.dtd">
<svg version="1.0" xmlns="http://www.w3.org/2000/svg"
 width="9232.000000pt" height="9340.000000pt" viewBox="0 0 9232.000000 9340.000000"
 preserveAspectRatio="xMidYMid meet">

<g transform="translate(0.000000,9340.000000) scale(0.100000,-0.100000)"
fill="#000000" stroke="none">
<path d="M44497 93259 c-8 -19 -18 -70 -21 -113 -22 -248 -237 -820 -407
-1081 -75 -114 -241 -278 -366 -359 -174 -114 -431 -234 -813 -381 -91 -35
-178 -69 -195 -75 -28 -12 -22 -14 113 -46 321 -75 612 -175 814 -278 431
-218 665 -506 853 -1046 32 -91 77 -207 102 -259 38 -84 45 -93 58 -80 23 23
125 256 200 454 181 484 381 765 696 977 236 159 479 228 864 247 186 10 275
25 282 48 3 7 -28 33 -68 59 -115 74 -282 137 -529 199 -415 103 -744 240
-865 360 -260 257 -633 977 -664 1285 -12 112 -32 145 -54 89z"/>
<path d="M52581 91674 c-21 -15 -23 -22 -19 -78 8 -101 75 -206 130 -206 40 0
62 116 37 202 -21 79 -95 120 -148 82z"/>
<path d="M36006 89918 c-3 -18 -13 -150 -21 -293 -19 -308 -36 -453 -70 -593
-51 -211 -157 -444 -283 -622 -86 -122 -300 -336 -419 -420 -98 -69 -178 -116
-370 -217 -114 -61 -253 -156 -260 -179 -5 -14 86 -40 187 -54 41 -6 212 -15
380 -20 393 -11 526 -34 698 -117 326 -159 804 -683 841 -923 6 -40 16 -60 36
-78 66 -56 93 7 76 183 -15 158 -14 225 4 327 52 302 266 677 545 957 164 166
304 267 537 390 174 92 279 156 267 164 -28 17 -314 71 -564 107 -563 81 -819
217 -1145 610 -196 236 -355 539 -355 675 0 29 -46 115 -69 129 -6 4 -12 -7
-15 -26z"/>
<path d="M58373 89400 c-42 -9 -63 -27 -63 -52 0 -29 -37 -96 -81 -143 -83
-90 -246 -182 -556 -316 -57 -24 -103 -48 -103 -54 0 -6 54 -69 120 -139 66
-71 142 -158 169 -194 105 -139 179 -301 182 -392 0 -25 4 -56 8 -69 l6 -24
35 29 c19 16 74 64 123 107 48 42 112 93 143 113 110 70 248 118 379 129 131
12 175 41 175 116 0 52 -44 101 -129 144 -110 55 -192 161 -235 305 -10 30
-21 111 -27 180 -18 226 -50 283 -146 260z"/>
<path d="M52943 87218 c-20 -25 -51 -93 -81 -179 -60 -170 -158 -338 -295
-509 -87 -107 -294 -311 -417 -410 -350 -280 -762 -470 -1020 -470 -38 0 -70
-4 -70 -9 0 -21 111 -104 195 -146 76 -39 104 -47 180 -56 198 -21 377 -155
542 -407 130 -197 230 -443 269 -662 8 -47 19 -177 24 -290 5 -113 15 -239 24
-281 16 -84 40 -149 54 -149 17 0 79 76 117 145 21 37 68 135 105 219 80 183
140 298 210 403 230 343 525 538 905 598 49 8 185 19 300 24 287 14 365 37
365 107 0 61 -23 91 -77 99 -115 17 -242 82 -411 210 -195 147 -391 344 -534
535 -186 248 -296 585 -318 967 -12 220 -34 303 -67 261z"/>
<path d="M44250 86523 c-373 -3 -1145 -22 -1395 -33 -298 -15 -420 -26 -670
-65 -470 -73 -895 -124 -1545 -185 -1016 -95 -1964 -207 -2600 -305 -320 -50
-476 -80 -654 -126 -65 -17 -34 -19 61 -4 333 54 717 88 993 89 273 1 358 -14
425 -74 28 -26 127 -57 237 -75 126 -21 477 -39 509 -26 24 10 24 10 -5 10
-53 2 -226 54 -299 90 -91 46 -121 86 -114 151 4 36 12 51 41 76 53 46 99 55
306 61 254 7 362 -19 427 -104 80 -104 -8 -239 -177 -272 -74 -15 -3 -13 155
4 257 27 379 55 529 122 166 74 417 136 801 198 296 48 352 54 1485 165 1805
177 2425 234 2940 270 162 11 333 24 380 29 77 7 -1103 10 -1830 4z"/>
<path d="M47828 86503 c7 -3 16 -2 19 1 4 3 -2 6 -13 5 -11 0 -14 -3 -6 -6z"/>
<path d="M47930 86493 c25 -2 371 -31 770 -63 704 -58 1129 -89 1530 -110 273
-15 925 -25 985 -15 49 8 49 8 20 17 -280 81 -961 124 -2655 168 -359 9 -751
11 -650 3z"/>
<path d="M36465 85594 c-247 -46 -767 -184 -635 -168 25 3 117 9 206 14 226
13 359 43 431 97 18 13 59 37 90 53 69 35 72 35 -92 4z"/>
<path d="M24562 85478 c-33 -36 -36 -69 -13 -157 25 -96 26 -122 6 -237 -25
-140 -81 -293 -185 -501 -52 -106 -93 -193 -90 -193 3 0 48 9 100 21 135 30
319 23 440 -16 111 -36 146 -54 260 -135 116 -83 189 -127 215 -132 32 -5 44
70 55 337 5 132 16 272 24 310 33 160 86 243 170 264 30 7 51 21 68 43 24 31
68 111 68 123 0 11 -62 4 -181 -21 -89 -18 -157 -26 -239 -26 -206 -2 -313 41
-472 188 -112 104 -174 154 -193 154 -6 0 -21 -10 -33 -22z"/>
<path d="M38405 85444 c-93 -19 -341 -66 -550 -105 -458 -84 -674 -138 -945
-234 -245 -87 -514 -172 -1070 -339 -498 -150 -911 -282 -1194 -382 -368 -131
-626 -195 -851 -214 -134 -10 -185 -29 -196 -72 -31 -119 -150 -183 -365 -198
-201 -15 -320 -48 -518 -147 -177 -89 -453 -211 -757 -336 -755 -312 -1355
-580 -2027 -906 -494 -240 -597 -281 -714 -281 -77 0 -140 25 -200 78 -68 62
-199 238 -246 331 -31 64 -37 85 -37 141 0 57 5 74 30 116 52 84 142 142 480
308 865 427 947 462 1151 490 149 21 351 91 746 260 248 106 559 233 858 349
22 9 -125 -3 -190 -14 -217 -40 -856 -261 -1545 -536 -455 -182 -913 -381
-1825 -793 -1052 -476 -1156 -522 -1410 -627 -259 -107 -432 -169 -492 -178
-26 -4 -53 -14 -62 -24 -8 -9 -33 -37 -56 -63 -76 -87 -262 -202 -645 -400
-428 -222 -924 -507 -1565 -900 -1476 -905 -2843 -1824 -3235 -2177 -109 -98
-200 -157 -293 -190 -124 -43 -269 -151 -694 -513 -504 -430 -726 -612 -1135
-930 -158 -124 -344 -274 -413 -335 -925 -810 -3505 -3383 -4281 -4269 -63
-71 -174 -207 -247 -302 -165 -211 -376 -465 -530 -636 -211 -233 -374 -436
-759 -946 -735 -975 -1648 -2255 -1704 -2391 -8 -19 -37 -79 -65 -134 -127
-251 -623 -1024 -758 -1183 -69 -81 -159 -231 -456 -762 -214 -382 -437 -739
-593 -949 -105 -142 -247 -285 -320 -321 -33 -16 -75 -30 -92 -30 -53 0 -59
-17 -49 -133 4 -56 8 -167 7 -247 0 -121 -5 -161 -26 -241 -32 -123 -76 -228
-139 -331 -128 -213 -192 -372 -207 -515 -16 -153 -57 -228 -170 -312 -77 -57
-280 -421 -389 -698 -71 -180 -101 -289 -112 -412 -16 -177 -55 -276 -145
-365 -29 -30 -65 -75 -78 -102 -36 -72 -85 -215 -112 -330 -45 -189 -112 -341
-183 -418 -15 -16 -50 -39 -78 -52 -47 -20 -52 -27 -63 -68 -6 -25 -11 -61
-11 -81 0 -192 -331 -1186 -730 -2195 -135 -340 -196 -534 -255 -804 -64 -296
-97 -430 -132 -536 -32 -96 -50 -137 -134 -301 -49 -96 -97 -262 -155 -538
-77 -370 -129 -603 -234 -1066 -176 -774 -287 -1323 -380 -1885 -61 -366 -126
-712 -175 -925 -68 -296 -122 -658 -195 -1310 -54 -479 -88 -716 -145 -995
-61 -299 -106 -417 -185 -479 -128 -102 -293 -98 -453 9 -303 202 -607 758
-773 1413 l-37 148 -47 -113 c-275 -663 -628 -1092 -1063 -1293 -192 -89 -345
-122 -612 -135 -203 -9 -285 -18 -285 -29 0 -10 108 -76 195 -119 44 -21 148
-67 232 -100 208 -85 288 -122 398 -187 211 -124 414 -306 524 -469 75 -111
147 -267 176 -381 15 -59 28 -151 34 -238 15 -207 66 -376 157 -512 l38 -59
12 90 c47 377 364 906 745 1242 208 184 330 262 424 270 144 12 231 -83 280
-307 69 -307 80 -696 95 -3146 10 -1576 15 -1926 40 -2615 21 -591 49 -1051
75 -1250 8 -58 48 -337 89 -620 41 -283 111 -783 156 -1110 292 -2156 344
-2448 655 -3720 128 -523 216 -914 270 -1195 54 -283 92 -418 235 -844 71
-212 175 -539 230 -726 131 -441 219 -714 342 -1065 94 -268 149 -415 331
-890 146 -383 240 -695 257 -855 15 -142 37 -202 106 -292 76 -99 309 -596
539 -1148 174 -418 267 -626 389 -870 102 -204 115 -225 178 -286 79 -77 115
-146 129 -245 10 -75 53 -194 149 -414 346 -796 1295 -2672 1920 -3795 64
-115 223 -394 352 -620 418 -729 647 -1174 664 -1288 9 -55 21 -77 42 -77 41
0 96 -24 132 -57 58 -51 89 -124 100 -228 10 -92 26 -125 63 -125 30 0 102
-45 131 -82 l25 -33 29 29 c40 38 95 44 153 18 141 -63 529 -495 1519 -1692
1026 -1240 1192 -1426 2116 -2385 629 -653 794 -849 882 -1048 48 -107 50
-228 5 -296 -9 -15 8 -5 48 28 124 100 182 106 290 28 124 -88 410 -334 754
-647 425 -387 857 -759 1199 -1033 332 -265 599 -496 841 -726 224 -214 380
-333 464 -355 95 -24 233 -121 457 -319 130 -116 334 -268 601 -449 259 -175
525 -370 673 -495 235 -197 386 -302 735 -508 138 -81 691 -412 1230 -735
1250 -749 1544 -921 2060 -1202 277 -151 390 -208 493 -249 104 -41 228 -107
296 -159 55 -42 106 -110 106 -143 0 -17 12 -22 80 -33 144 -22 634 -227 1370
-574 522 -246 997 -466 1280 -592 345 -154 477 -227 563 -314 110 -111 91
-184 -114 -439 -110 -137 -286 -326 -403 -433 -99 -92 -180 -147 -271 -186
-170 -72 -499 -33 -750 89 -118 57 -168 101 -193 168 -22 58 -7 51 -167 80
-70 13 -271 81 -390 132 l-40 17 42 -36 c26 -23 48 -54 59 -84 9 -26 27 -55
38 -65 37 -31 139 -74 249 -106 192 -56 332 -142 379 -235 26 -50 20 -132 -12
-180 -55 -80 -146 -116 -293 -116 -181 0 -353 60 -472 163 -27 24 -61 49 -74
56 l-23 13 18 -32 c41 -69 182 -224 373 -408 110 -106 237 -239 283 -295 317
-394 453 -782 409 -1167 -7 -58 -31 -174 -52 -259 -42 -160 -56 -260 -45 -306
5 -19 19 -32 51 -46 48 -21 65 -19 65 9 0 31 50 126 104 197 204 271 673 651
956 776 47 21 119 45 161 53 216 44 527 45 819 2 225 -33 310 -40 310 -26 0
40 -84 141 -142 171 -21 11 -72 24 -114 29 -92 12 -140 34 -165 74 -58 95 27
196 165 196 169 0 607 -130 1234 -367 370 -139 847 -300 1033 -347 75 -19 178
-39 230 -45 161 -16 259 -69 290 -155 23 -63 142 -111 424 -171 248 -53 786
-191 1125 -289 1195 -344 2197 -576 2900 -671 333 -45 486 -76 651 -131 98
-32 137 -53 227 -118 57 -42 254 -75 452 -76 219 -1 506 -44 889 -134 324 -77
1326 -180 2721 -281 1535 -111 1976 -162 2217 -254 148 -58 207 -133 223 -285
13 -128 52 -172 165 -183 71 -7 173 24 253 77 34 23 94 78 133 123 90 101 145
147 229 191 251 131 639 177 2560 301 1960 127 3414 263 4375 411 493 76 734
134 817 198 77 58 236 93 484 106 365 19 922 126 1829 350 717 177 1228 323
2335 664 1210 372 1432 452 2626 939 155 63 549 219 875 347 879 344 1358 554
1484 649 111 84 236 128 400 140 134 11 180 28 229 87 158 188 889 557 1155
581 89 8 131 27 131 57 0 35 20 87 47 123 34 47 99 81 173 92 81 11 177 49
370 146 1198 600 4385 2734 6025 4034 545 432 1451 1216 2385 2065 886 806
1395 1299 1706 1652 112 128 277 312 366 410 357 389 418 457 602 669 105 121
291 340 413 486 381 458 620 696 733 734 174 58 285 -144 265 -480 -18 -298
-100 -594 -217 -788 -104 -170 -163 -313 -156 -374 3 -25 6 -23 88 52 180 166
329 241 515 261 86 9 154 42 200 98 107 130 286 182 548 157 273 -26 553 -112
902 -276 120 -56 261 -105 305 -105 l32 0 -29 50 c-16 28 -59 88 -94 133 -91
114 -135 182 -218 332 -87 160 -187 388 -243 555 -41 123 -42 127 -42 270 -1
226 36 335 285 837 88 177 164 336 169 352 7 27 6 31 -10 31 -33 0 -282 -134
-440 -236 -384 -249 -662 -369 -885 -381 -225 -12 -345 80 -345 267 0 169 95
351 325 625 230 275 529 682 878 1194 536 789 768 1103 852 1152 44 26 62 55
70 115 21 143 195 467 589 1103 260 418 405 665 456 777 121 264 198 400 455
814 276 443 427 717 729 1320 501 1003 823 1782 856 2072 19 162 91 268 192
284 57 10 69 31 80 136 19 190 81 394 227 735 397 934 1172 3224 1461 4321 33
125 129 565 215 977 245 1184 335 1576 418 1825 68 204 111 468 182 1130 138
1284 312 2727 434 3600 45 322 64 510 86 855 89 1425 79 3854 -21 4905 -15
158 -18 179 -78 570 -35 224 -99 694 -155 1135 -16 127 -30 222 -30 212 -1
-10 10 -161 24 -335 38 -493 143 -1927 154 -2122 186 -3113 -155 -7515 -800
-10320 -110 -480 -735 -2977 -845 -3380 -145 -527 -570 -1761 -827 -2400 -180
-449 -227 -600 -247 -791 -17 -170 -80 -269 -190 -299 -27 -7 -41 -18 -48 -38
-21 -53 -32 -108 -32 -158 0 -179 -91 -444 -214 -622 -114 -166 -172 -311
-186 -468 -5 -57 -18 -125 -31 -158 -29 -78 -98 -150 -159 -166 -64 -17 -75
-24 -78 -51 -38 -347 -882 -2068 -1706 -3482 -432 -741 -696 -1242 -717 -1362
-6 -33 -20 -77 -30 -98 -25 -47 -84 -114 -109 -122 -47 -15 -304 -362 -681
-921 -439 -651 -749 -1081 -909 -1259 -147 -164 -352 -425 -550 -700 -116
-160 -260 -307 -355 -363 -136 -79 -282 -112 -502 -112 -62 0 -113 -2 -113 -5
0 -3 18 -28 39 -55 167 -212 142 -427 -91 -774 -150 -223 -436 -573 -772 -946
-974 -1077 -3245 -3351 -4061 -4066 -77 -67 -228 -191 -335 -275 -256 -200
-473 -376 -644 -523 -199 -170 -440 -361 -666 -526 -227 -166 -510 -386 -730
-566 -289 -237 -610 -464 -900 -639 -260 -157 -393 -262 -410 -326 -22 -82
-105 -144 -213 -159 -113 -16 -308 -126 -647 -364 -487 -342 -762 -508 -1305
-788 -321 -166 -452 -242 -533 -311 -31 -26 -86 -67 -122 -91 -410 -271 -2329
-1245 -2908 -1477 -79 -32 -149 -53 -195 -59 -99 -12 -117 -20 -171 -78 -107
-113 -439 -270 -1441 -680 -242 -99 -548 -226 -680 -282 -487 -207 -920 -359
-1880 -660 -570 -179 -1125 -375 -1269 -447 -154 -77 -300 -120 -461 -133
-228 -19 -517 -92 -1180 -299 -934 -290 -1225 -361 -1530 -375 -217 -10 -511
-64 -1055 -196 -550 -133 -954 -191 -1468 -210 -147 -5 -313 -16 -369 -25
-131 -19 -250 -49 -272 -69 -93 -84 -768 -171 -1986 -256 -1522 -105 -3481
-169 -4375 -141 -891 28 -2720 173 -3980 317 -2009 228 -3532 506 -5100 929
-342 92 -744 194 -1202 305 -120 29 -293 78 -385 110 -382 132 -1216 411
-1773 595 -969 318 -1417 491 -1503 580 -49 50 -95 65 -233 76 -203 15 -382
71 -632 198 -271 139 -478 300 -558 438 -43 72 -55 136 -61 315 -6 188 5 327
43 523 55 285 99 369 222 423 57 25 223 20 427 -12 193 -31 425 -77 534 -107
40 -11 75 -18 77 -17 2 2 -41 23 -94 46 -89 39 -133 63 -238 133 -60 40 -120
59 -213 70 -110 13 -204 37 -369 94 -924 316 -3216 1414 -4922 2357 -179 99
-485 268 -680 376 -546 300 -588 326 -775 475 -165 133 -520 334 -727 413
-112 42 -167 74 -226 128 -43 39 -92 120 -92 151 0 21 -30 31 -120 39 -129 13
-239 64 -281 132 -41 68 -374 318 -884 664 -531 361 -961 678 -1436 1057 -178
142 -385 305 -459 363 -255 197 -625 513 -1259 1074 -517 457 -1009 870 -1113
934 -58 36 -144 136 -179 210 -25 52 -34 84 -37 144 -4 70 -2 81 22 123 75
128 307 198 651 198 198 0 325 -17 455 -60 83 -27 119 -47 200 -109 90 -70
223 -115 411 -139 138 -18 226 -46 375 -120 360 -178 855 -570 1664 -1316 464
-429 622 -560 1463 -1218 364 -284 648 -535 683 -603 18 -35 43 -48 124 -65
101 -21 293 -130 575 -327 273 -190 561 -415 755 -590 105 -95 207 -144 323
-156 126 -13 195 -47 271 -134 114 -130 489 -384 1396 -948 767 -477 1193
-770 1257 -863 25 -37 77 -65 120 -65 135 0 724 -257 1823 -795 1195 -586
1543 -744 2325 -1063 149 -61 419 -174 600 -252 182 -78 391 -164 465 -192
146 -54 382 -118 433 -118 l32 0 -46 29 c-55 35 -104 83 -124 122 -17 31 -63
49 -131 49 -83 0 -223 32 -394 90 -1004 338 -3752 1666 -4565 2206 -247 164
-298 248 -216 361 67 92 191 141 386 152 91 5 140 13 162 25 64 32 54 105 -26
201 -104 124 -176 302 -213 525 -11 69 -22 127 -24 129 -2 2 -38 -28 -79 -68
-162 -154 -358 -243 -572 -260 -125 -10 -193 -32 -173 -56 7 -8 26 -15 42 -15
192 0 292 -338 145 -497 -58 -63 -107 -85 -199 -91 -164 -10 -309 56 -485 221
-125 116 -182 155 -270 182 -137 43 -441 224 -1003 598 -1505 1003 -3696 2633
-4330 3221 -130 121 -222 191 -264 202 -68 17 -423 337 -1181 1065 -579 556
-988 979 -1200 1244 -86 107 -199 281 -244 375 -132 277 -102 481 105 710 100
111 159 197 219 318 50 101 63 142 45 142 -19 0 -212 -104 -381 -205 -175
-105 -436 -234 -543 -269 -98 -33 -156 -33 -221 -2 -246 117 -743 632 -1330
1380 -191 243 -478 591 -653 791 -240 273 -488 599 -744 977 -258 381 -427
607 -641 854 -130 149 -248 343 -311 511 -33 88 -88 163 -119 163 -37 1 -101
35 -131 71 -44 52 -66 112 -76 204 -10 99 -29 144 -70 168 -16 10 -64 64 -106
120 -302 399 -1339 2076 -1759 2842 -48 88 -250 486 -449 885 -570 1144 -850
1731 -1186 2485 -120 270 -277 623 -350 785 -231 515 -363 863 -456 1200 -69
255 -113 380 -167 488 -80 156 -198 492 -377 1072 -121 389 -218 684 -297 905
-81 224 -150 463 -257 895 -98 391 -154 654 -162 754 -9 119 27 153 192 181
132 22 351 35 599 35 370 0 541 -24 699 -99 152 -71 272 -176 565 -491 202
-217 443 -445 452 -427 17 30 31 206 39 487 10 315 22 430 61 556 62 200 186
358 397 502 127 87 175 114 405 232 l208 107 -198 6 c-109 4 -243 14 -298 22
-439 68 -881 261 -1100 480 -84 85 -132 170 -145 262 -9 64 -24 100 -73 173
-32 48 -165 190 -178 190 -11 0 -64 -203 -134 -520 -75 -336 -105 -433 -175
-569 -115 -224 -259 -372 -542 -558 -350 -229 -529 -292 -688 -238 -76 25
-155 106 -209 212 -402 800 -1050 5114 -1226 8168 -22 374 -31 1126 -16 1329
13 180 39 328 70 399 25 57 106 138 169 168 58 29 141 30 202 2 76 -33 163
-115 347 -326 97 -111 178 -204 180 -207 2 -2 134 126 293 285 l289 289 -276
280 c-152 155 -279 281 -282 281 -3 0 -73 -72 -156 -159 -169 -180 -275 -269
-382 -322 -128 -63 -230 -58 -296 15 -157 174 -174 882 -62 2481 148 2097 279
2872 529 3125 74 74 135 104 228 112 101 9 115 31 82 130 -23 68 -72 145 -154
243 -132 157 -168 267 -157 490 10 205 45 396 223 1228 155 725 269 1297 329
1642 71 418 111 561 204 734 73 136 111 263 206 696 56 258 117 470 193 675
65 173 221 643 381 1145 112 350 237 710 301 870 50 126 131 339 250 665 240
656 540 1365 1087 2570 108 237 201 442 209 456 l13 26 138 -19 c398 -53 909
-118 932 -118 25 1 23 3 -24 47 -70 65 -192 143 -224 143 -145 1 -383 298
-451 564 -33 132 -24 186 46 268 89 104 245 377 506 883 266 517 437 811 561
964 102 127 157 250 157 352 0 104 74 215 164 247 43 15 53 24 82 77 19 33 56
130 84 215 76 234 159 354 266 382 56 15 65 30 75 132 14 134 40 188 140 286
128 126 267 320 584 820 232 364 420 647 479 720 122 150 302 384 589 767 464
620 715 926 810 992 61 41 68 52 82 128 31 160 73 230 293 492 782 931 1234
1420 2342 2535 1600 1609 3264 3139 3800 3493 161 107 251 184 520 448 237
233 337 313 415 334 132 35 861 549 1117 788 238 221 2112 1371 3843 2358 931
530 1006 568 2520 1267 1400 646 1716 783 2444 1057 860 324 1593 580 2371
827 217 69 555 179 751 244 669 223 1462 424 2111 535 178 31 338 69 338 80 0
14 -125 0 -275 -31z m-10254 -2846 c98 -33 179 -123 264 -293 90 -180 105
-286 55 -390 -15 -31 -61 -86 -120 -145 -80 -80 -115 -106 -220 -165 -153 -85
-278 -167 -347 -226 -73 -63 -220 -149 -530 -308 -473 -243 -928 -513 -1703
-1008 -565 -361 -976 -593 -1049 -593 -20 0 -31 -18 -31 -53 0 -38 -58 -125
-112 -168 -60 -47 -100 -69 -193 -104 -77 -29 -145 -68 -300 -173 -128 -86
-193 -137 -405 -318 -210 -177 -459 -379 -670 -542 -213 -165 -457 -364 -565
-461 -104 -94 -203 -159 -281 -187 -81 -28 -156 -87 -339 -264 -249 -243 -437
-405 -761 -656 -285 -221 -548 -456 -1119 -1003 -956 -915 -2172 -2161 -2685
-2751 -65 -74 -256 -297 -425 -495 -170 -198 -361 -418 -425 -490 -253 -282
-981 -1187 -1397 -1735 -313 -413 -1047 -1477 -1292 -1874 -128 -205 -159
-264 -174 -331 -24 -103 -75 -176 -159 -228 -73 -45 -419 -563 -775 -1157
-276 -462 -442 -765 -641 -1170 -219 -446 -382 -657 -535 -694 -43 -10 -108
12 -142 49 -65 68 -71 187 -25 432 17 87 29 175 28 196 l-3 37 -85 -64 c-47
-36 -175 -151 -286 -258 -204 -197 -295 -269 -419 -330 -161 -80 -285 -106
-550 -114 -339 -11 -494 17 -542 97 -60 98 -34 176 184 559 614 1078 2623
4208 2928 4562 85 99 360 447 615 778 552 716 702 900 1273 1570 995 1164
1162 1347 2041 2225 813 813 1242 1214 2161 2025 209 184 470 415 580 514 231
206 388 335 785 646 465 364 668 541 782 682 46 56 105 86 194 99 128 18 208
72 553 372 252 221 358 285 496 302 49 7 65 14 90 40 16 18 48 51 70 75 221
237 1709 1226 2315 1539 193 99 258 139 320 196 139 128 651 417 1875 1057
982 514 1198 618 1419 683 90 27 220 33 277 13z m-18953 -18564 c52 -25 97
-58 147 -108 62 -61 76 -82 103 -151 85 -223 122 -576 122 -1168 l0 -309 145
135 c259 243 319 284 397 274 79 -11 116 -72 125 -206 12 -185 -35 -373 -126
-506 -152 -223 -551 -1171 -914 -2170 -205 -564 -290 -845 -307 -1006 -5 -52
-14 -111 -20 -131 -17 -57 -71 -131 -111 -151 -30 -14 -43 -31 -72 -96 -103
-225 -255 -754 -397 -1381 -58 -257 -126 -501 -175 -631 -136 -356 -410 -1508
-566 -2379 -84 -469 -131 -699 -198 -970 -33 -129 -80 -329 -105 -443 -66
-296 -92 -364 -171 -442 -90 -90 -173 -113 -454 -125 -206 -8 -241 -13 -241
-32 0 -22 194 -201 408 -377 l223 -184 -6 -51 c-9 -86 -214 -2485 -235 -2761
-23 -311 -55 -847 -70 -1185 -48 -1111 -52 -2513 -10 -3640 57 -1522 173
-2892 351 -4150 56 -399 124 -805 229 -1375 50 -269 147 -800 216 -1180 188
-1037 299 -1571 418 -2011 76 -279 116 -395 190 -552 79 -169 113 -275 127
-398 18 -165 122 -552 314 -1168 202 -651 372 -1134 476 -1356 74 -160 135
-343 203 -611 79 -310 122 -414 210 -499 88 -85 126 -169 145 -325 19 -154
165 -542 389 -1035 312 -686 683 -1460 1079 -2250 288 -577 349 -691 429 -805
32 -46 84 -149 267 -525 222 -458 1244 -2141 1827 -3010 178 -265 250 -361
303 -402 79 -62 111 -114 132 -214 22 -107 109 -230 359 -510 166 -186 279
-357 311 -467 24 -82 104 -184 290 -368 242 -239 342 -363 381 -475 42 -120
153 -269 499 -664 581 -666 759 -890 838 -1057 27 -58 32 -79 32 -144 0 -68
-3 -80 -30 -119 -19 -28 -60 -63 -113 -97 l-83 -54 62 -66 c307 -329 508
-1141 379 -1528 -58 -172 -202 -248 -345 -181 -111 51 -359 260 -616 517 -216
218 -1614 1751 -1818 1995 -228 272 -341 440 -341 505 0 32 -12 46 -97 109
-88 67 -312 324 -578 665 -229 293 -445 561 -556 691 -56 64 -117 138 -136
162 -46 60 -100 169 -108 218 -12 65 -87 176 -234 344 -291 333 -1187 1652
-1525 2244 -77 133 -113 212 -124 265 -8 37 -16 42 -86 56 -15 3 -53 29 -83
58 -64 61 -138 201 -173 332 -43 157 -104 275 -142 275 -50 0 -125 67 -158
143 -12 26 -25 85 -30 130 -12 120 -52 210 -140 317 -111 135 -369 613 -861
1593 -568 1133 -855 1751 -1024 2202 -253 678 -834 2391 -1110 3270 -208 664
-290 895 -475 1340 -367 881 -549 1457 -550 1745 0 84 -15 179 -41 257 -15 47
-32 73 -66 105 -64 61 -116 172 -143 303 -5 28 -14 127 -20 221 -16 287 -53
491 -141 778 -195 633 -381 1781 -563 3486 -92 855 -211 2270 -246 2925 -74
1395 -57 3727 35 4830 27 316 56 470 101 539 31 46 46 137 68 401 20 229 33
483 46 855 27 771 98 1431 175 1636 66 175 109 413 125 686 11 193 40 408 101
738 174 938 554 2477 971 3925 120 419 451 1432 625 1915 25 69 65 181 89 250
25 69 56 154 69 190 47 126 74 196 136 360 34 91 74 199 89 240 66 178 336
865 384 975 8 17 26 62 41 100 48 122 327 784 415 985 23 52 54 124 69 160 27
64 37 86 106 240 183 409 516 1127 558 1200 109 195 219 306 340 346 73 24
177 12 265 -32z"/>
<path d="M5650 40237 c-64 -18 -121 -49 -143 -78 -10 -14 -23 -55 -30 -92 -15
-88 0 -148 51 -200 56 -58 126 -80 257 -81 193 -2 216 20 222 209 5 134 -9
199 -50 229 -25 18 -44 21 -145 23 -71 2 -135 -3 -162 -10z"/>
<path d="M35758 85413 c7 -3 16 -2 19 1 4 3 -2 6 -13 5 -11 0 -14 -3 -6 -6z"/>
<path d="M35248 85293 c7 -3 16 -2 19 1 4 3 -2 6 -13 5 -11 0 -14 -3 -6 -6z"/>
<path d="M35179 85286 c-9 -9 -234 -36 -379 -45 -168 -11 -299 -38 -340 -71
-36 -29 -125 -74 -200 -101 l-65 -24 39 -3 c77 -7 341 44 586 112 172 48 421
134 389 135 -14 1 -28 -1 -30 -3z"/>
<path d="M40224 85217 c-51 -30 -99 -76 -173 -166 -112 -135 -352 -461 -346
-471 2 -4 65 -40 139 -80 218 -118 446 -300 594 -474 l77 -89 6 114 c9 160 53
293 140 421 65 95 114 144 226 223 l102 73 -122 47 c-278 108 -440 213 -537
346 -51 70 -67 79 -106 56z"/>
<path d="M33720 84898 c-190 -55 -688 -179 -920 -228 -312 -66 -391 -88 -467
-125 -58 -29 -73 -41 -78 -64 -3 -16 -22 -47 -41 -69 l-35 -41 153 54 c84 29
173 61 198 70 112 40 481 151 638 191 197 50 389 84 478 84 64 0 153 25 159
44 2 6 6 23 9 38 3 14 18 40 32 57 14 17 22 30 17 30 -4 -1 -69 -19 -143 -41z"/>
<path d="M70212 84157 c-174 -163 -381 -238 -712 -257 -85 -5 -178 -16 -205
-23 -51 -14 -95 -34 -95 -42 0 -3 33 -20 73 -39 85 -41 122 -88 161 -206 39
-120 49 -230 44 -498 -2 -133 -2 -242 -1 -242 1 0 50 31 107 69 121 79 187
112 306 153 170 57 359 75 520 49 84 -14 172 -12 177 5 6 18 -70 123 -160 222
-200 219 -224 392 -121 870 2 12 2 22 0 22 -3 0 -45 -37 -94 -83z"/>
<path d="M45925 83614 c-242 -37 -442 -132 -602 -287 -177 -170 -234 -339
-235 -692 0 -194 12 -287 58 -450 47 -167 152 -357 239 -433 53 -47 91 -63
167 -73 171 -21 302 -133 404 -344 66 -136 87 -225 87 -375 0 -110 -4 -143
-35 -275 -53 -218 -101 -471 -158 -827 -180 -1118 -370 -2200 -491 -2802 -74
-367 -369 -1531 -539 -2126 -99 -344 -165 -539 -235 -690 -60 -129 -105 -271
-105 -330 0 -254 -678 -1755 -1035 -2290 -140 -210 -423 -539 -710 -825 -295
-296 -505 -455 -599 -455 -41 0 -76 -25 -76 -54 0 -64 -78 -122 -211 -156
-164 -43 -315 -55 -674 -55 -351 0 -490 9 -679 46 -167 32 -221 54 -284 117
-68 68 -115 89 -226 101 -106 12 -216 61 -376 168 -711 473 -2048 1883 -2841
2998 -47 66 -187 266 -311 445 -763 1103 -879 1291 -992 1601 -22 62 -74 139
-100 149 -12 5 -36 14 -55 21 -18 7 -42 26 -52 43 -54 88 6 200 243 453 150
159 221 279 272 457 134 461 -71 1005 -481 1273 -245 161 -541 215 -804 148
-206 -53 -444 -223 -603 -430 -80 -104 -104 -142 -160 -253 -89 -178 -128
-330 -128 -502 0 -181 39 -300 135 -417 172 -210 392 -452 438 -482 92 -60
198 -91 344 -102 146 -11 188 -20 258 -56 76 -38 130 -100 181 -205 114 -236
169 -623 256 -1788 56 -754 73 -1158 73 -1765 0 -487 -10 -760 -38 -1115 -122
-1498 -505 -2453 -1158 -2890 -382 -255 -872 -322 -1437 -195 -296 66 -704
234 -1115 459 -422 231 -678 415 -765 550 -46 71 -65 82 -156 95 -116 17 -254
101 -533 325 -326 262 -1082 933 -1177 1044 -249 292 -323 583 -187 741 38 45
120 91 161 91 68 0 86 62 85 285 -1 223 -44 458 -104 578 -59 116 -269 330
-439 446 -457 313 -950 286 -1328 -73 -94 -90 -151 -164 -208 -270 -146 -275
-175 -606 -79 -921 77 -255 288 -538 467 -628 109 -55 189 -68 488 -77 341
-11 424 -17 497 -36 207 -52 299 -158 483 -554 100 -216 210 -427 260 -500 90
-133 644 -1208 1340 -2600 225 -449 451 -889 663 -1290 294 -556 421 -776 472
-814 45 -35 94 -136 106 -222 28 -196 72 -318 222 -616 119 -239 238 -423 306
-476 89 -69 134 -163 151 -317 20 -174 74 -304 205 -495 197 -286 242 -516
128 -650 -49 -57 -103 -81 -200 -91 -107 -11 -145 -28 -199 -88 -82 -91 -365
-263 -847 -512 -924 -480 -1390 -740 -1535 -859 -86 -70 -399 -279 -772 -515
-463 -293 -758 -504 -810 -580 -55 -80 -126 -120 -239 -136 -101 -15 -174 -61
-431 -275 -342 -285 -647 -531 -965 -779 -314 -245 -470 -371 -689 -559 -925
-795 -2251 -2098 -3027 -2976 -80 -91 -260 -300 -400 -465 -141 -165 -325
-379 -409 -475 -154 -177 -506 -639 -946 -1245 -1342 -1844 -1731 -2470 -2596
-4170 -423 -830 -631 -1191 -714 -1235 -152 -82 -23 -638 325 -1405 186 -408
912 -1799 1131 -2165 120 -201 173 -275 333 -468 83 -100 167 -292 167 -383 0
-81 10 -110 44 -128 108 -57 288 -295 536 -706 120 -199 309 -485 374 -567 26
-32 63 -69 84 -82 79 -50 189 -209 377 -546 63 -112 178 -286 222 -336 16 -17
52 -44 81 -59 80 -43 207 -186 364 -408 129 -183 205 -282 328 -428 766 -904
2894 -3054 3880 -3920 85 -75 254 -216 375 -314 121 -98 325 -267 454 -374
129 -108 250 -209 270 -224 68 -54 508 -356 1041 -714 966 -649 1344 -920
1452 -1044 54 -61 56 -62 171 -88 103 -24 403 -184 792 -423 582 -358 1196
-681 2175 -1145 1439 -683 2887 -1269 3615 -1462 160 -43 372 -112 548 -180
194 -74 672 -203 1262 -340 660 -153 1035 -251 1325 -346 231 -76 329 -102
550 -149 1106 -235 3034 -395 5365 -447 577 -13 2163 -7 2610 10 1034 39 1696
87 2315 166 242 32 415 61 735 124 492 98 937 163 1195 176 229 12 329 41 404
118 85 88 220 132 451 148 308 20 767 118 1380 294 361 104 495 148 1085 360
427 153 876 303 1075 359 236 67 563 195 1012 397 430 193 776 317 944 337 94
12 115 23 124 64 26 117 111 184 264 207 46 7 130 34 225 73 534 216 1798 842
2131 1056 39 25 90 63 115 84 56 50 207 123 370 179 77 27 147 59 184 84 51
35 61 47 76 93 33 101 116 157 255 173 114 12 134 23 142 72 16 100 112 178
241 197 121 17 327 137 527 305 206 174 431 329 584 401 199 95 222 107 241
132 11 13 20 36 20 49 0 53 58 131 122 164 20 10 63 21 95 25 109 11 193 64
458 285 280 235 692 567 990 799 116 90 262 207 325 259 939 780 2780 2581
3466 3391 45 52 129 159 188 238 152 203 261 327 491 562 227 231 281 302 315
408 38 122 132 252 415 577 92 105 195 246 227 310 9 17 19 50 23 75 15 91 85
185 172 231 59 32 290 334 558 732 338 502 615 978 615 1061 1 90 86 183 187
204 32 6 44 17 80 72 24 35 52 93 64 129 32 97 106 277 136 330 15 25 46 70
70 100 152 188 1012 1852 1226 2372 91 219 147 414 147 509 0 50 -11 77 -119
300 -66 135 -181 376 -256 535 -143 306 -255 518 -312 598 -58 79 -184 312
-385 712 -428 852 -828 1554 -979 1720 -47 52 -150 206 -279 420 -187 310
-300 457 -360 470 -45 10 -107 60 -130 105 -12 23 -26 66 -31 98 -6 31 -22 78
-35 104 -122 242 -520 812 -708 1018 -108 117 -252 295 -561 690 -764 978
-1496 1759 -3001 3201 -1059 1015 -1162 1106 -1939 1704 -217 167 -421 333
-592 482 -232 202 -436 345 -780 549 -379 224 -559 365 -574 449 -6 28 -71 69
-169 106 -260 99 -661 328 -845 484 -107 91 -443 288 -1105 645 -297 161 -407
226 -511 305 -87 66 -306 178 -634 325 -391 175 -568 265 -606 307 -29 33 -31
41 -26 88 18 173 313 914 426 1070 102 141 559 1025 1634 3160 693 1378 834
1655 1037 2035 43 80 216 418 385 750 169 333 351 691 404 795 166 325 261
464 369 545 118 88 202 107 512 115 319 9 443 29 607 98 384 162 594 532 593
1045 -1 212 -26 357 -83 472 -39 79 -199 246 -327 340 -111 82 -299 173 -425
206 -146 38 -324 44 -464 15 -417 -87 -723 -403 -817 -844 -39 -187 -37 -458
7 -685 23 -120 44 -180 82 -236 97 -142 -49 -388 -508 -855 -461 -468 -884
-814 -1493 -1219 -399 -265 -508 -343 -604 -428 -191 -172 -588 -342 -1071
-459 -331 -80 -533 -107 -813 -106 -829 1 -1132 203 -1553 1034 -317 629 -363
903 -411 2467 -18 574 -23 1654 -11 2170 21 861 43 1185 117 1683 56 381 127
534 279 603 31 14 116 36 192 50 342 62 576 193 746 417 150 197 213 393 211
662 -1 218 -41 386 -143 601 -148 311 -342 468 -658 531 -136 27 -438 25 -555
-4 -333 -84 -556 -293 -677 -635 -61 -175 -76 -284 -76 -558 0 -194 4 -264 18
-335 31 -153 80 -235 173 -290 98 -58 198 -202 245 -355 34 -106 34 -263 1
-335 -13 -27 -35 -63 -50 -79 -30 -32 -96 -65 -129 -66 -43 0 -100 -107 -154
-290 -62 -212 -164 -358 -262 -377 -40 -8 -42 -10 -50 -57 -22 -130 -215 -445
-587 -956 -180 -248 -313 -438 -391 -560 -54 -84 -68 -109 -123 -222 -75 -153
-528 -662 -1100 -1233 -845 -843 -1348 -1238 -1726 -1355 -152 -47 -240 -96
-240 -135 0 -29 -61 -84 -117 -105 -150 -56 -481 -85 -876 -77 -285 6 -401 16
-554 47 -164 34 -244 85 -259 164 -7 38 -38 56 -100 56 -128 0 -370 159 -617
403 -473 471 -926 1132 -1284 1877 -268 557 -397 882 -414 1045 -13 122 -33
190 -78 255 -74 107 -143 274 -266 645 -187 562 -306 1024 -326 1263 -14 171
-41 280 -110 434 -92 208 -219 728 -355 1456 -116 625 -187 1116 -204 1422
-20 334 -36 439 -85 530 -96 181 -118 253 -159 521 -48 313 -61 475 -61 784 0
304 4 335 46 389 11 15 44 37 72 51 93 44 360 257 513 410 399 398 467 933
172 1362 -228 331 -677 499 -1143 427z m8063 -26761 c389 -312 748 -600 797
-642 132 -109 625 -607 820 -826 928 -1047 1830 -2322 1999 -2827 14 -42 30
-116 35 -165 11 -104 16 -120 42 -128 92 -30 242 -293 410 -720 45 -115 151
-383 234 -595 84 -212 171 -441 193 -510 242 -743 416 -2056 472 -3560 13
-343 13 -1198 0 -1505 -28 -667 -86 -1181 -175 -1560 -13 -55 -68 -251 -123
-435 -55 -184 -152 -510 -216 -725 -183 -617 -276 -860 -606 -1580 -104 -228
-209 -494 -222 -565 -21 -109 -30 -132 -65 -171 -39 -43 -99 -79 -131 -79 -54
0 -118 -108 -167 -280 -59 -212 -160 -363 -261 -392 l-49 -14 -8 -64 c-10 -84
-64 -198 -147 -310 -72 -97 -112 -145 -296 -355 -152 -174 -204 -248 -228
-325 -33 -103 -147 -240 -496 -594 -615 -625 -1502 -1433 -1836 -1672 -47 -33
-125 -77 -174 -98 -127 -53 -167 -85 -181 -141 -28 -111 -122 -176 -282 -194
-48 -6 -95 -15 -105 -20 -9 -5 -35 -33 -57 -63 -23 -29 -74 -78 -114 -109
-260 -200 -1226 -707 -1877 -984 -248 -106 -391 -153 -501 -164 -103 -11 -153
-31 -153 -62 0 -61 -89 -147 -185 -179 -37 -12 -111 -25 -177 -30 -190 -15
-396 -64 -713 -168 -208 -69 -433 -123 -776 -186 -1410 -259 -2607 -314 -3874
-180 -2315 245 -4587 1141 -6454 2547 -1370 1031 -2495 2304 -3396 3842 -357
610 -789 1502 -1028 2125 -219 571 -456 1622 -616 2735 -85 588 -110 903 -118
1465 -17 1291 144 2480 512 3770 142 498 234 748 515 1395 155 358 239 572
266 677 21 82 52 141 197 383 297 496 667 1059 889 1356 800 1068 2112 2457
2756 2917 110 80 171 113 305 167 82 33 157 101 157 141 0 39 56 89 121 108
89 26 199 36 499 46 443 15 1105 0 2750 -60 2473 -91 3745 -119 4602 -101
1322 27 2307 60 4908 166 844 34 1554 63 1578 64 42 1 53 -7 750 -566z"/>
<path d="M45675 54678 c-221 -8 -257 -14 -548 -88 -298 -76 -455 -112 -868
-199 -570 -120 -903 -230 -1419 -468 -944 -434 -1960 -1147 -2560 -1794 -199
-214 -858 -998 -889 -1057 -5 -9 -12 -37 -16 -61 -9 -57 -112 -256 -264 -511
-265 -445 -432 -844 -670 -1600 -71 -228 -173 -541 -225 -695 -54 -160 -101
-319 -110 -370 -91 -527 -88 -1843 5 -2454 11 -74 38 -193 59 -265 314 -1083
456 -1544 536 -1748 66 -167 99 -225 143 -248 66 -33 108 -109 121 -219 15
-113 138 -339 405 -736 310 -462 665 -927 934 -1222 185 -203 501 -480 846
-741 309 -234 614 -422 682 -422 102 0 222 -106 223 -197 0 -43 110 -105 267
-152 228 -67 344 -138 390 -237 29 -64 47 -72 199 -84 231 -20 426 -74 804
-223 540 -214 1062 -341 1650 -401 515 -53 1108 -45 1650 25 1132 144 2259
538 3262 1140 814 489 1504 1088 2123 1844 207 252 482 626 637 866 239 369
358 613 371 764 10 107 33 171 78 220 23 24 57 49 77 56 53 17 66 31 111 123
145 298 300 1028 385 1816 137 1267 77 2380 -185 3414 -391 1543 -1262 2871
-2679 4086 -178 153 -330 276 -410 332 -359 253 -1413 786 -2096 1058 -363
145 -980 282 -1669 370 -535 68 -960 93 -1350 78z"/>
<path d="M34537 82817 c-10 -163 -88 -362 -211 -535 -81 -114 -99 -148 -91
-172 8 -25 83 -81 240 -180 235 -148 391 -289 446 -400 l26 -53 26 55 c27 56
47 152 47 223 0 89 63 260 135 370 22 33 72 94 110 135 86 91 125 138 125 151
0 5 -17 9 -38 9 -65 0 -152 29 -263 86 -118 62 -225 139 -399 288 -63 54 -122
102 -131 107 -14 7 -17 -3 -22 -84z"/>
<path d="M42910 82547 c-26 -9 -36 -19 -38 -38 -4 -30 32 -79 57 -79 30 0 64
45 65 87 1 34 -2 38 -24 40 -14 1 -41 -3 -60 -10z"/>
<path d="M21052 81450 c-136 -29 -272 -144 -272 -230 0 -32 49 -96 141 -186
103 -100 170 -144 218 -144 75 0 233 95 271 162 20 35 25 56 24 113 -2 160
-118 284 -273 291 -36 2 -85 -1 -109 -6z"/>
<path d="M62077 81057 c-63 -28 -209 -202 -263 -314 -36 -76 -45 -192 -20
-258 45 -115 218 -180 333 -124 138 67 244 318 202 483 -18 73 -137 201 -204
219 -11 3 -32 1 -48 -6z"/>
<path d="M72465 80788 c-109 -60 -187 -300 -141 -431 18 -50 42 -76 91 -98
108 -50 327 2 415 97 41 45 48 70 29 106 -8 14 -8 23 0 31 8 8 11 4 12 -13 0
-14 3 -19 6 -11 11 26 -58 140 -126 208 -102 104 -218 149 -286 111z"/>
<path d="M53624 80505 c-7 -19 -14 -54 -14 -77 0 -94 -84 -204 -192 -253 -45
-20 -83 -28 -170 -35 -138 -11 -183 -24 -220 -60 -57 -57 -21 -147 105 -266
163 -152 321 -355 349 -446 6 -21 15 -38 20 -38 5 0 48 37 96 83 148 140 288
227 400 249 31 6 63 15 70 21 30 23 -2 161 -57 240 -18 26 -66 80 -107 119
-126 122 -207 264 -220 385 -6 65 -22 113 -36 113 -5 0 -16 -16 -24 -35z"/>
<path d="M16960 80197 c0 -7 10 -64 21 -127 49 -265 -1 -601 -127 -852 -24
-48 -44 -90 -44 -92 0 -3 29 8 65 25 251 113 604 142 761 61 67 -35 124 -113
124 -171 0 -11 9 -25 19 -31 72 -38 87 19 75 285 -13 285 -11 511 5 575 29
117 100 200 172 200 14 0 34 7 45 15 16 13 17 16 4 25 -19 14 -158 6 -260 -15
-108 -22 -326 -30 -444 -16 -140 16 -217 37 -323 87 -57 26 -93 38 -93 31z"/>
<path d="M77670 78505 c-19 -7 -91 -40 -159 -74 -154 -78 -241 -101 -375 -101
-121 0 -196 15 -376 74 -74 25 -146 46 -160 48 -22 3 -25 0 -22 -27 5 -54 70
-170 136 -244 85 -94 110 -146 114 -239 5 -91 -16 -155 -99 -297 -69 -119
-112 -210 -107 -229 5 -24 100 8 278 94 189 91 258 113 352 113 89 0 165 -30
259 -100 83 -63 159 -113 171 -113 4 0 8 9 8 21 0 54 -38 159 -120 329 -98
206 -110 239 -110 323 0 97 39 151 142 197 74 32 118 99 118 177 0 55 -8 63
-50 48z"/>
<path d="M25050 78426 c0 -2 12 -44 26 -92 43 -148 73 -282 94 -419 84 -555
26 -1164 -138 -1444 -15 -25 -62 -86 -104 -134 -119 -135 -174 -226 -191 -314
-6 -29 -4 -33 15 -33 12 0 75 25 140 55 213 99 376 135 613 135 226 0 402 -35
605 -122 198 -84 328 -174 575 -397 172 -156 259 -231 269 -231 12 0 5 97 -14
182 -24 110 -48 156 -111 215 -61 56 -101 135 -125 241 -22 100 -14 335 16
477 54 252 183 550 319 735 159 216 273 401 258 416 -9 10 -159 -32 -273 -76
-164 -63 -220 -80 -324 -96 -431 -65 -892 114 -1225 476 -28 30 -88 99 -134
152 -111 131 -291 300 -291 274z"/>
<path d="M71075 76004 c-42 -21 -99 -78 -150 -149 -131 -183 -435 -410 -718
-537 -333 -149 -575 -141 -1174 40 -123 38 -164 46 -220 43 -57 -3 -8 -106
116 -248 191 -218 260 -475 248 -928 -10 -395 -75 -643 -234 -890 -78 -122
-98 -159 -118 -216 l-14 -39 28 15 c41 21 114 78 211 164 322 289 628 464 920
527 63 14 124 18 235 18 207 -2 284 -23 554 -153 236 -114 354 -159 359 -135
9 38 -84 242 -226 495 -254 454 -288 589 -217 862 50 193 213 597 309 767 102
179 172 254 248 266 21 4 38 11 38 17 0 6 -20 30 -45 54 -37 35 -52 43 -83 43
-20 0 -50 -7 -67 -16z"/>
<path d="M75931 73939 c-64 -11 -182 -51 -216 -73 -92 -61 -98 -294 -11 -409
33 -43 99 -77 149 -77 104 0 240 98 298 215 28 58 31 71 28 138 -4 61 -10 83
-34 122 -48 77 -109 101 -214 84z"/>
<path d="M17630 71516 c-149 -34 -240 -78 -259 -124 -16 -38 0 -101 35 -139
15 -16 34 -44 44 -63 25 -50 169 -184 229 -215 28 -14 62 -25 77 -25 86 0 180
216 172 396 -3 92 -19 124 -77 158 -41 24 -146 30 -221 12z"/>
<path d="M9240 70729 c-63 -10 -163 -49 -272 -108 -153 -81 -214 -96 -403 -95
-136 0 -170 3 -225 22 -35 11 -66 20 -68 18 -2 -3 12 -46 31 -98 48 -128 110
-382 142 -579 48 -295 58 -344 76 -343 9 1 67 34 129 74 193 124 345 178 530
187 83 3 120 1 178 -15 45 -11 71 -14 69 -8 -47 126 -90 272 -103 351 -21 132
-21 338 1 432 9 39 15 91 13 114 -3 36 -7 44 -28 49 -14 3 -45 3 -70 -1z"/>
<path d="M82831 69541 c90 -239 194 -1000 174 -1281 -12 -174 -41 -272 -118
-400 -53 -88 -119 -167 -293 -350 -205 -215 -329 -364 -307 -369 27 -5 186 18
358 54 291 60 364 69 580 70 154 0 220 -4 289 -18 325 -66 572 -209 911 -527
132 -124 278 -241 338 -272 l39 -19 -7 23 c-4 13 -38 86 -75 163 -74 152 -118
281 -147 420 -25 124 -25 432 0 560 73 372 227 679 516 1025 118 141 221 282
255 348 l17 32 -45 0 c-61 0 -234 -46 -466 -124 -263 -89 -323 -100 -530 -93
-235 8 -384 46 -615 156 -202 97 -408 235 -586 393 -195 173 -294 258 -300
258 -4 0 1 -22 12 -49z"/>
<path d="M78581 68582 c-6 -31 -24 -80 -40 -108 l-28 -51 44 19 c56 25 129 33
176 20 34 -10 36 -9 27 8 -14 27 -108 127 -140 150 l-27 20 -12 -58z"/>
<path d="M78330 68294 c-110 -47 -191 -59 -385 -58 -156 0 -205 4 -366 32
-102 18 -205 32 -229 32 -39 0 -42 -2 -36 -22 3 -13 13 -59 22 -103 35 -169
-3 -401 -98 -598 -40 -82 -49 -110 -39 -116 7 -5 101 -11 209 -14 272 -8 466
-45 615 -116 l57 -28 -7 51 c-11 72 -8 198 7 286 33 199 152 476 264 615 32
39 50 66 44 64 -2 -1 -28 -12 -58 -25z"/>
<path d="M79931 66840 c-1 -54 6 -66 41 -75 15 -4 46 -23 69 -43 24 -21 39
-30 34 -22 -22 38 -67 99 -104 140 l-40 45 0 -45z"/>
<path d="M4474 65875 c-38 -38 -74 -123 -74 -176 0 -141 193 -126 224 18 10
46 -11 112 -49 150 -39 39 -67 42 -101 8z"/>
<path d="M80909 65415 c79 -115 189 -255 201 -255 10 0 -25 103 -54 159 -9 17
-36 43 -59 57 -23 15 -66 49 -96 78 l-54 51 62 -90z"/>
<path d="M81557 64192 c-15 -410 -149 -873 -316 -1094 l-50 -65 177 -52 c202
-58 468 -124 687 -171 82 -17 174 -41 205 -52 185 -69 341 -240 539 -588 96
-170 105 -180 26 -30 -226 430 -325 646 -395 859 -69 209 -83 325 -55 460 18
83 9 131 -28 156 -12 8 -65 29 -118 47 -125 44 -196 87 -280 170 -76 76 -127
159 -160 263 -41 130 -92 205 -138 205 -9 0 -33 11 -52 24 l-36 25 -6 -157z"/>
<path d="M15985 63462 c-12 -9 -40 -43 -63 -74 -94 -127 -295 -165 -545 -102
-37 9 -70 14 -73 11 -14 -13 91 -414 146 -555 55 -143 149 -262 207 -262 26 0
65 35 130 117 85 108 284 139 524 82 135 -31 136 -28 40 76 -175 188 -251 349
-270 572 -13 141 -41 182 -96 135z"/>
<path d="M88694 63145 c12 -94 136 -1310 136 -1331 0 -16 -166 -184 -584 -591
-321 -312 -583 -569 -582 -570 1 -2 135 11 297 29 382 40 677 44 804 10 206
-56 413 -204 658 -469 153 -167 299 -352 422 -538 63 -93 125 -186 139 -205
41 -54 128 -140 142 -140 7 0 25 16 40 35 34 44 29 63 -36 139 -84 97 -130
213 -166 411 -26 145 -26 450 0 560 37 159 90 226 198 249 30 7 48 47 48 106
0 92 75 251 188 400 130 171 375 387 569 501 43 25 110 65 148 87 86 51 143
97 132 109 -13 12 -321 8 -397 -6 -103 -19 -381 -25 -500 -12 -216 26 -453
103 -636 209 -245 142 -391 283 -744 722 -139 173 -259 322 -267 330 -13 13
-14 9 -9 -35z"/>
<path d="M83521 60725 c0 -5 8 -26 19 -45 11 -19 19 -30 19 -25 0 6 -8 26 -19
45 -11 19 -19 31 -19 25z"/>
<path d="M83571 60615 c0 -5 8 -26 19 -45 11 -19 19 -30 19 -25 0 6 -8 26 -19
45 -11 19 -19 31 -19 25z"/>
<path d="M80480 60123 c-8 -3 -28 -15 -44 -26 -27 -19 -28 -21 -10 -28 26 -10
136 -11 152 -1 14 9 -4 30 -45 51 -23 12 -30 12 -53 4z"/>
<path d="M2718 59839 c-28 -15 -99 -115 -175 -244 -118 -199 -294 -423 -502
-638 -197 -203 -326 -297 -487 -356 -181 -66 -332 -82 -848 -90 l-409 -6 219
-165 c472 -356 730 -579 845 -730 28 -36 74 -114 104 -175 83 -168 109 -294
145 -690 12 -126 28 -279 36 -340 15 -109 52 -307 59 -313 7 -7 105 149 175
278 229 426 463 674 785 835 231 115 397 151 755 165 135 5 281 12 325 15 91
7 215 33 215 44 0 31 -129 137 -330 271 -240 161 -448 324 -523 412 -139 165
-283 473 -348 747 -39 164 -51 248 -56 416 -4 144 -2 187 16 285 38 212 38
301 -1 279z"/>
<path d="M83930 59816 c0 -4 16 -46 36 -94 67 -161 181 -465 254 -677 109
-317 208 -561 257 -632 23 -34 52 -81 65 -105 19 -37 23 -40 26 -21 6 39 -27
189 -69 310 -22 65 -80 201 -129 303 -124 261 -189 444 -205 575 -13 111 -13
110 -55 129 -44 19 -90 71 -144 161 -20 32 -36 55 -36 51z"/>
<path d="M84700 57957 c0 -3 20 -59 44 -124 79 -212 173 -515 215 -688 73
-299 81 -328 110 -384 21 -41 35 -57 56 -63 16 -4 30 -6 32 -4 1 1 -22 76 -51
167 -30 90 -84 259 -121 374 -82 258 -184 532 -236 639 -39 79 -49 95 -49 83z"/>
<path d="M85335 56193 c84 -399 337 -1196 485 -1530 73 -163 95 -265 127 -574
26 -254 26 -922 0 -1094 -60 -402 -171 -646 -402 -884 -182 -187 -351 -301
-735 -493 -140 -70 -250 -127 -243 -128 35 -1 365 -43 440 -56 536 -93 986
-335 1191 -643 56 -83 76 -126 142 -296 61 -159 204 -398 380 -640 146 -200
194 -297 250 -503 16 -59 29 -98 29 -87 1 11 -10 130 -24 265 -46 470 -160
1898 -152 1906 1 2 196 88 432 192 441 194 641 289 778 370 76 45 78 47 50 55
-15 4 -122 12 -238 17 -236 10 -315 20 -462 55 -577 138 -1040 563 -1169 1072
-13 53 -29 154 -35 223 -17 202 -126 623 -304 1170 -232 714 -346 1133 -366
1352 -12 132 -19 152 -58 173 -35 18 -69 60 -105 133 -15 28 -28 52 -30 52 -2
0 6 -48 19 -107z"/>
<path d="M10095 53806 c-38 -17 -112 -97 -121 -131 -8 -33 3 -44 52 -56 49
-11 97 4 124 38 25 32 27 108 4 141 -18 25 -19 26 -59 8z"/>
<path d="M92153 53809 c-38 -11 -121 -91 -129 -125 -20 -78 132 -94 181 -20
13 19 16 40 13 77 -6 63 -22 79 -65 68z"/>
<path d="M81277 49713 c-4 -3 -7 -16 -7 -28 0 -42 -62 -145 -131 -219 -82 -88
-157 -149 -288 -236 l-94 -62 59 -32 c122 -65 202 -132 289 -241 77 -97 185
-202 238 -230 35 -18 39 -19 65 -3 38 22 85 94 106 164 31 101 84 190 146 248
76 70 133 96 232 107 83 10 118 22 118 41 0 6 -20 30 -43 53 -35 33 -62 47
-133 69 -194 61 -322 146 -346 229 -15 55 -48 90 -115 121 -54 26 -84 32 -96
19z"/>
<path d="M91036 48129 c-73 -152 -198 -325 -357 -494 -105 -111 -169 -186
-169 -195 0 -4 19 -10 42 -13 23 -3 79 -24 123 -46 114 -56 206 -144 300 -286
87 -130 135 -179 168 -169 39 11 124 71 234 166 125 107 483 458 483 473 0 6
-32 23 -70 38 -146 60 -380 240 -535 413 -44 49 -102 112 -130 141 l-50 53
-39 -81z"/>
<path d="M84477 41590 c-92 -16 -112 -59 -111 -235 1 -207 24 -230 229 -223
98 3 129 8 170 26 63 29 93 56 116 107 34 73 19 212 -26 255 -60 56 -256 92
-378 70z"/>
<path d="M2196 37941 c-9 -16 -16 -45 -16 -64 0 -61 -30 -136 -90 -224 -87
-130 -176 -221 -344 -355 -83 -66 -152 -124 -154 -127 -1 -4 51 -28 116 -54
65 -25 147 -62 183 -82 175 -99 369 -272 475 -425 l58 -84 14 49 c35 134 68
227 104 300 89 176 203 314 345 416 45 33 83 64 83 69 0 11 -32 31 -201 120
-191 102 -301 175 -396 263 -77 72 -112 126 -122 187 -8 46 -35 51 -55 11z"/>
<path d="M89895 35398 c-59 -99 -245 -253 -400 -331 -27 -13 -106 -48 -175
-77 -69 -29 -129 -54 -133 -57 -4 -2 53 -68 128 -145 75 -77 160 -170 190
-207 76 -94 159 -230 197 -322 17 -43 34 -79 37 -79 4 0 65 56 138 124 72 68
171 152 220 187 101 74 247 151 328 174 l56 17 -76 74 c-139 138 -260 305
-390 539 -42 77 -80 143 -83 147 -4 4 -20 -16 -37 -44z"/>
<path d="M81578 33228 c-69 -68 -193 -200 -276 -294 -207 -235 -295 -314 -407
-370 -165 -82 -327 -91 -805 -45 -113 11 -257 23 -320 26 l-115 7 95 -97 c112
-114 226 -195 274 -195 45 0 133 -27 183 -57 114 -67 228 -238 298 -447 77
-229 107 -442 134 -938 9 -186 20 -340 22 -343 3 -2 103 103 223 235 362 398
466 483 666 549 142 47 410 70 810 71 247 0 530 10 529 19 0 3 -53 47 -117 98
-184 145 -372 313 -562 503 -194 193 -268 286 -341 423 -87 167 -114 301 -124
629 -5 179 -20 326 -34 341 -5 5 -65 -47 -133 -115z"/>
<path d="M4490 32853 c-54 -9 -191 -86 -225 -125 -106 -124 -42 -359 117 -428
71 -31 198 -33 278 -5 73 27 144 95 160 155 25 89 -20 202 -125 318 -70 77
-123 99 -205 85z"/>
<path d="M87630 31605 c-135 -48 -170 -96 -170 -236 0 -141 54 -255 162 -339
68 -54 98 -53 176 4 77 57 217 217 238 273 16 40 15 44 -5 87 -28 56 -136 174
-198 215 -58 39 -84 38 -203 -4z"/>
<path d="M4610 29075 c-5 -14 -10 -50 -10 -79 0 -174 -88 -407 -238 -634 -45
-67 -82 -124 -82 -126 0 -2 48 -6 108 -9 219 -10 395 -102 612 -321 110 -111
126 -124 137 -110 18 25 67 179 113 358 79 308 179 460 318 482 36 6 41 9 30
22 -21 25 -90 52 -134 52 -137 1 -379 102 -574 240 -108 77 -197 129 -247 144
-19 6 -25 2 -33 -19z"/>
<path d="M87030 26803 c-33 -13 -107 -70 -184 -141 -160 -147 -349 -227 -563
-239 -57 -3 -103 -8 -103 -11 0 -3 22 -53 50 -112 90 -195 137 -408 147 -668
4 -108 9 -152 17 -149 7 3 59 35 116 71 237 152 524 254 808 290 62 7 116 16
119 19 3 4 -29 43 -71 88 -61 65 -87 103 -131 192 -76 155 -104 260 -115 432
-14 206 -32 251 -90 228z"/>
<path d="M12827 26404 c-93 -22 -113 -37 -137 -100 -24 -65 -39 -190 -29 -248
12 -74 83 -106 234 -106 98 0 168 16 194 44 29 31 44 129 37 235 -8 100 -33
167 -71 181 -37 14 -159 11 -228 -6z"/>
<path d="M82238 26265 c-89 -33 -193 -134 -218 -210 -9 -28 -8 -40 6 -67 23
-44 155 -180 227 -234 81 -60 117 -69 173 -42 74 35 210 197 221 263 5 29 -1
45 -32 92 -108 162 -261 243 -377 198z"/>
<path d="M77609 22954 c-104 -37 -178 -45 -429 -50 -129 -3 -250 -7 -267 -10
-33 -5 -33 -5 -33 -64 0 -146 80 -514 152 -703 l30 -79 32 35 c87 95 215 113
511 71 55 -7 118 -14 139 -14 l39 0 -6 128 c-8 175 -80 714 -96 711 -3 -1 -36
-12 -72 -25z"/>
<path d="M19902 22199 c-25 -7 -37 -19 -48 -45 -23 -54 -36 -245 -32 -455 l3
-191 27 -23 c38 -33 91 -37 388 -33 341 4 331 -2 351 216 12 122 8 445 -5 475
-14 30 -61 47 -158 57 -117 12 -482 11 -526 -1z"/>
<path d="M11946 20637 c36 -116 71 -180 113 -202 l30 -15 -15 41 c-8 23 -17
66 -21 96 -7 66 -26 89 -76 96 -36 6 -38 4 -31 -16z"/>
<path d="M12555 19745 c30 -50 128 -185 144 -198 18 -14 -98 154 -136 198
l-26 30 18 -30z"/>
<path d="M12930 19161 c0 -20 32 -91 42 -91 5 0 52 -42 105 -92 l97 -93 -94
110 c-52 61 -107 125 -122 143 -15 18 -28 28 -28 23z"/>
<path d="M13385 18630 c10 -11 20 -20 23 -20 3 0 -3 9 -13 20 -10 11 -20 20
-23 20 -3 0 3 -9 13 -20z"/>
<path d="M13597 18363 c238 -304 286 -363 291 -363 5 0 -50 76 -167 230 -92
122 -298 370 -306 370 -3 0 79 -107 182 -237z"/>
<path d="M11050 17883 c-129 -24 -131 -27 -141 -246 -9 -189 -35 -322 -82
-413 -33 -63 -59 -92 -125 -139 -47 -33 -52 -39 -36 -48 28 -16 197 -12 339 8
96 13 164 16 260 12 208 -9 292 -43 370 -152 44 -63 87 -96 102 -81 15 15 14
124 -2 191 -12 45 -19 127 -23 231 -5 198 11 314 70 490 32 98 38 128 29 137
-9 9 -106 12 -374 14 -199 0 -373 -1 -387 -4z"/>
<path d="M74650 17709 c-107 -70 -336 -111 -510 -90 -52 6 -135 18 -184 27
-66 11 -91 13 -100 4 -15 -15 -11 -188 9 -382 20 -191 31 -256 56 -335 32 -97
47 -104 238 -115 206 -11 409 -41 495 -74 20 -7 34 40 46 156 11 110 14 840 3
839 -5 0 -28 -14 -53 -30z"/>
<path d="M70811 17519 c-15 -45 -14 -95 4 -129 9 -17 18 -30 21 -30 10 0 34
69 34 98 0 41 -20 92 -35 92 -7 0 -18 -14 -24 -31z"/>
<path d="M14548 17095 c26 -50 193 -245 324 -377 79 -79 120 -119 92 -89 -94
104 -209 235 -304 346 -51 61 -100 117 -108 125 -13 13 -13 13 -4 -5z"/>
<path d="M15133 16438 c92 -105 161 -198 192 -258 36 -70 402 -459 1054 -1120
195 -197 234 -233 174 -160 -101 123 -136 173 -178 261 -58 122 -59 206 -1
302 l33 55 -31 -19 c-38 -23 -102 -24 -158 -2 -160 62 -495 348 -936 798 -124
127 -191 191 -149 143z"/>
<path d="M60497 13714 c-34 -34 -77 -124 -121 -255 -42 -127 -96 -334 -96
-370 0 -25 3 -26 71 -33 165 -15 353 -112 541 -280 37 -33 81 -68 97 -78 l29
-19 26 108 c55 236 97 578 82 678 -11 68 -36 88 -157 125 -57 18 -175 59 -262
91 -87 32 -164 59 -172 59 -7 0 -24 -12 -38 -26z"/>
<path d="M27193 13520 c-30 -12 -29 -21 5 -52 38 -36 101 -68 134 -68 25 0 28
4 28 33 -1 73 -88 119 -167 87z"/>
<path d="M18100 13338 c186 -188 970 -944 1183 -1140 70 -64 349 -298 619
-520 1093 -892 1371 -1134 1451 -1260 18 -28 53 -42 132 -53 116 -16 216 -75
463 -278 717 -586 1136 -901 1235 -928 98 -26 228 -111 422 -274 150 -127 327
-254 465 -335 63 -37 333 -188 600 -335 780 -431 1044 -594 1315 -815 73 -59
177 -120 206 -120 38 0 301 -134 509 -260 295 -179 366 -219 515 -291 169 -82
267 -115 360 -122 l70 -6 -175 87 c-210 105 -369 198 -453 266 -92 74 -235
158 -727 426 -986 538 -1430 798 -1583 928 -65 55 -279 185 -527 319 -356 193
-535 327 -571 427 -8 23 -21 38 -34 40 -113 20 -151 31 -220 65 -44 21 -145
87 -225 148 -210 159 -537 398 -1005 733 -815 583 -1256 911 -1415 1052 -122
107 -404 342 -645 538 -639 519 -1157 966 -1665 1435 -311 288 -349 323 -300
273z"/>
<path d="M14135 11984 c-73 -30 -108 -63 -124 -115 -34 -113 62 -198 140 -124
38 37 51 86 47 184 l-3 79 -60 -24z"/>
<path d="M63985 10865 c3 -55 22 -244 42 -420 45 -401 49 -625 15 -748 -46
-165 -137 -301 -382 -567 -334 -362 -568 -635 -556 -647 7 -7 116 30 263 88
268 106 462 146 668 136 363 -18 675 -185 1110 -597 185 -174 411 -367 421
-358 6 7 -40 284 -81 483 -108 530 -99 776 40 1061 100 206 253 385 592 691
101 91 182 167 181 168 -2 2 -137 -12 -301 -31 -621 -70 -849 -67 -1107 18
-170 55 -450 225 -598 363 -88 82 -126 137 -136 197 -7 40 -81 155 -141 223
l-36 40 6 -100z"/>
<path d="M73490 10912 c0 -5 7 -33 16 -63 24 -79 74 -174 158 -297 148 -217
204 -370 226 -612 25 -295 -47 -629 -207 -951 -111 -225 -204 -358 -451 -641
-59 -68 -113 -165 -127 -225 l-7 -33 54 36 c91 60 185 100 433 182 132 44 314
112 405 152 267 117 283 122 396 128 161 7 280 -26 512 -142 158 -79 285 -154
477 -281 185 -122 282 -195 426 -323 106 -94 106 -94 135 6 24 82 8 131 -66
207 -128 130 -187 363 -212 837 -14 263 -2 517 33 683 38 188 133 383 289 595
188 257 338 485 326 498 -9 8 -210 -85 -496 -228 -353 -178 -451 -211 -706
-245 -143 -19 -373 -19 -478 0 -152 27 -248 95 -262 187 -7 43 -13 46 -118 64
-154 25 -331 129 -586 343 -149 126 -170 141 -170 123z"/>
<path d="M44442 9739 c-61 -39 -148 -190 -225 -394 -72 -189 -94 -239 -169
-389 -120 -240 -179 -314 -319 -401 -148 -92 -309 -167 -569 -267 -162 -61
-380 -164 -380 -179 0 -12 169 -92 285 -133 167 -60 226 -86 312 -132 246
-134 451 -348 568 -597 88 -186 119 -319 134 -577 10 -161 29 -247 73 -317 24
-39 69 -73 97 -73 25 0 28 12 35 137 30 500 419 1084 918 1379 171 101 322
147 513 159 56 3 114 9 129 13 l29 8 -33 28 c-45 37 -162 94 -300 146 -268 99
-489 238 -651 406 -220 230 -339 525 -339 841 0 154 -31 325 -63 352 -9 7 -22
4 -45 -10z"/>
<path d="M34260 9469 c-19 -11 -82 -69 -140 -128 -85 -87 -120 -115 -185 -148
-119 -62 -197 -85 -308 -92 l-98 -6 87 -140 c135 -215 234 -441 281 -634 l8
-35 80 75 c94 87 144 123 240 171 124 62 262 98 380 98 52 0 121 15 129 28 12
19 -37 83 -144 190 -109 109 -121 125 -168 222 -56 118 -68 163 -81 302 -13
131 -17 135 -81 97z"/>
<path d="M21774 8771 c-71 -39 -182 -116 -304 -214 -142 -112 -207 -155 -325
-214 -264 -133 -556 -192 -890 -180 -315 11 -617 87 -891 225 -114 57 -275
125 -281 118 -8 -7 57 -93 202 -266 216 -257 352 -451 475 -677 176 -323 265
-592 277 -843 10 -205 -30 -348 -132 -470 -92 -111 -216 -407 -219 -520 -1
-55 -1 -55 31 -58 17 -2 50 2 73 8 35 10 44 17 61 56 50 117 340 321 761 534
308 157 455 198 668 187 146 -8 225 -22 599 -108 274 -64 630 -132 640 -123
11 10 -205 265 -402 474 -343 367 -438 503 -488 701 -39 154 -14 457 72 879
27 132 50 226 109 439 11 41 19 76 17 77 -1 2 -25 -10 -53 -25z"/>
<path d="M54270 7993 c-61 -46 -131 -116 -176 -177 -53 -71 -57 -106 -15 -162
39 -54 217 -224 234 -224 22 0 85 51 159 126 77 80 118 138 118 168 0 45 -115
188 -203 253 -33 23 -64 43 -71 43 -6 0 -27 -12 -46 -27z"/>
<path d="M33849 6732 c12 -23 21 -50 21 -61 0 -32 50 -51 166 -62 118 -11 180
-23 386 -74 348 -87 892 -260 1323 -420 275 -102 411 -146 615 -199 169 -44
1250 -279 1256 -273 7 6 -169 72 -256 95 -41 12 -142 34 -225 51 -377 76 -664
155 -1799 496 -940 282 -1233 377 -1489 480 -18 7 -17 5 2 -33z"/>
<path d="M31554 6715 c71 -39 339 -142 581 -225 251 -85 606 -193 613 -185 3
3 3 5 0 5 -3 0 -83 30 -179 66 -130 49 -803 281 -1044 359 -11 3 2 -6 29 -20z"/>
<path d="M33430 6094 c0 -1 11 -26 25 -57 18 -38 34 -58 53 -66 48 -19 115
-31 181 -31 80 0 242 -24 389 -56 63 -14 115 -24 117 -22 10 10 -41 51 -90 73
-57 25 -210 71 -311 95 -58 13 -364 67 -364 64z"/>
<path d="M34690 5710 c147 -53 549 -150 616 -150 26 0 -121 66 -236 106 -127
44 -233 64 -360 70 l-105 4 85 -30z"/>
<path d="M38255 5444 c89 -60 132 -118 164 -217 7 -20 16 -102 20 -182 4 -81
12 -150 18 -156 33 -33 258 -31 698 6 401 34 732 29 858 -13 60 -20 97 -65 97
-119 0 -40 5 -42 141 -71 248 -54 749 -107 1804 -191 1572 -126 2520 -173
3070 -151 284 11 405 20 405 30 0 4 -125 10 -277 13 -561 13 -1144 67 -1789
167 -489 76 -1160 171 -1864 266 -1787 239 -1991 281 -2183 452 -130 115 -332
158 -817 172 -168 5 -323 12 -345 15 l-40 7 40 -28z"/>
<path d="M36080 5341 c34 -20 420 -102 469 -100 17 0 -456 109 -474 109 -5 -1
-3 -5 5 -9z"/>
<path d="M37895 5050 c39 -10 86 -18 105 -18 35 0 35 0 -10 12 -25 7 -72 15
-105 18 l-60 6 70 -18z"/>
<path d="M50635 4644 c-151 -7 -490 -35 -600 -50 -60 -8 -198 -32 -305 -54
-178 -36 -399 -65 -665 -89 l-100 -8 85 -2 c281 -4 2395 116 2560 146 l35 6
-55 13 c-103 24 -265 35 -570 38 -168 2 -341 2 -385 0z"/>
<path d="M68263 4546 c-52 -59 -80 -102 -71 -111 12 -12 120 -45 147 -45 15 0
34 7 41 15 22 26 -2 114 -49 174 l-18 23 -50 -56z"/>
<path d="M48893 4433 c9 -2 25 -2 35 0 9 3 1 5 -18 5 -19 0 -27 -2 -17 -5z"/>
<path d="M61937 4008 c-10 -79 -43 -169 -98 -259 -67 -113 -112 -169 -256
-320 -152 -162 -154 -165 -105 -173 20 -3 60 -6 88 -6 101 0 268 -69 429 -175
45 -30 140 -108 212 -174 107 -98 132 -117 138 -103 4 9 29 82 57 162 113 330
239 528 354 559 38 10 56 45 50 100 -7 77 -53 96 -262 111 -252 18 -366 71
-400 187 -17 57 -51 93 -119 124 -69 32 -81 27 -88 -33z"/>
<path d="M40410 1520 c-106 -109 -244 -201 -473 -315 -94 -47 -173 -87 -175
-89 -2 -3 25 -19 59 -37 242 -121 470 -380 494 -562 9 -66 19 -77 65 -77 85 0
153 50 206 151 80 153 257 248 460 249 34 0 76 3 94 6 30 6 31 9 26 38 -23
115 -477 626 -629 708 -18 9 -34 17 -37 17 -3 -1 -43 -41 -90 -89z"/>
<path d="M49568 1431 c-59 -65 -105 -161 -118 -245 -6 -37 -20 -87 -31 -109
-49 -94 -179 -190 -322 -237 -76 -25 -160 -77 -165 -102 -5 -24 55 -61 166
-102 202 -75 374 -222 490 -419 35 -59 66 -107 70 -107 12 0 164 159 272 285
174 203 306 372 339 434 37 71 42 65 -94 106 -143 43 -217 87 -321 190 -92 91
-118 133 -198 318 -8 20 -22 37 -30 37 -8 0 -34 -22 -58 -49z"/>
</g>
</svg>
