<svg width="68" height="68" viewBox="0 0 68 68" fill="none" xmlns="http://www.w3.org/2000/svg">
<path d="M12.4409 60.8227L12.1872 60.2H11.5148H4.25C2.51132 60.2 1 58.6837 1 56.6667C1 54.6497 2.51132 53.1333 4.25 53.1333H11.5148H12.1872L12.4409 52.5107C13.9374 48.8379 17.342 46.3333 21.25 46.3333C25.158 46.3333 28.5626 48.8379 30.0591 52.5107L30.3128 53.1333H30.9852H63.75C65.4887 53.1333 67 54.6497 67 56.6667C67 58.6837 65.4887 60.2 63.75 60.2H30.9852H30.3128L30.0591 60.8227C28.5626 64.4954 25.158 67 21.25 67C17.342 67 13.9374 64.4954 12.4409 60.8227ZM37.0148 30.4667H37.6872L37.9409 29.844C39.4374 26.1712 42.842 23.6667 46.75 23.6667C50.658 23.6667 54.0626 26.1712 55.5591 29.844L55.8128 30.4667H56.4852H63.75C65.4887 30.4667 67 31.983 67 34C67 36.017 65.4887 37.5333 63.75 37.5333H56.4852H55.8128L55.5591 38.156C54.0626 41.8288 50.658 44.3333 46.75 44.3333C42.842 44.3333 39.4374 41.8288 37.9409 38.156L37.6872 37.5333H37.0148H4.25C2.51132 37.5333 1 36.017 1 34C1 31.983 2.51132 30.4667 4.25 30.4667H37.0148ZM34.3091 7.17734L34.5628 7.8H35.2352H63.75C65.4887 7.8 67 9.31634 67 11.3333C67 13.3503 65.4887 14.8667 63.75 14.8667H35.2352H34.5628L34.3091 15.4893C32.8126 19.1621 29.408 21.6667 25.5 21.6667C21.592 21.6667 18.1874 19.1621 16.6909 15.4893L16.4372 14.8667H15.7648H4.25C2.51132 14.8667 1 13.3503 1 11.3333C1 9.31634 2.51132 7.8 4.25 7.8H15.7648H16.4372L16.6909 7.17734C18.1874 3.50457 21.592 1 25.5 1C29.408 1 32.8126 3.50457 34.3091 7.17734ZM17.5153 52.7772C16.5385 53.8191 16 55.2192 16 56.6667C16 58.1141 16.5385 59.5142 17.5153 60.5562C18.4941 61.6003 19.836 62.2 21.25 62.2C22.664 62.2 24.0059 61.6003 24.9847 60.5562C25.9615 59.5142 26.5 58.1141 26.5 56.6667C26.5 55.2192 25.9615 53.8191 24.9847 52.7772C24.0059 51.7331 22.664 51.1333 21.25 51.1333C19.836 51.1333 18.4941 51.7331 17.5153 52.7772ZM43.0153 30.1105C42.0385 31.1524 41.5 32.5525 41.5 34C41.5 35.4475 42.0385 36.8476 43.0153 37.8895C43.9941 38.9336 45.336 39.5333 46.75 39.5333C48.164 39.5333 49.5059 38.9336 50.4847 37.8895C51.4615 36.8476 52 35.4475 52 34C52 32.5525 51.4615 31.1524 50.4847 30.1105C49.5059 29.0664 48.164 28.4667 46.75 28.4667C45.336 28.4667 43.9941 29.0664 43.0153 30.1105ZM21.7653 15.2228C22.7441 16.2669 24.086 16.8667 25.5 16.8667C26.914 16.8667 28.2559 16.2669 29.2347 15.2228C30.2115 14.1809 30.75 12.7808 30.75 11.3333C30.75 9.88588 30.2115 8.48576 29.2347 7.44384C28.2559 6.39974 26.914 5.8 25.5 5.8C24.086 5.8 22.7441 6.39974 21.7653 7.44384C20.7885 8.48576 20.25 9.88588 20.25 11.3333C20.25 12.7808 20.7885 14.1809 21.7653 15.2228Z" stroke="white" stroke-opacity="0.85" stroke-width="2"/>
</svg>
