<svg width="68" height="68" viewBox="0 0 68 68" fill="none" xmlns="http://www.w3.org/2000/svg">
<path d="M53.0627 53.4504L53.6475 54.8803L54.7126 53.7613C59.6098 48.6166 62.625 41.6656 62.625 34C62.625 18.1876 49.8124 5.375 34 5.375C18.1876 5.375 5.375 18.1876 5.375 34C5.375 41.6656 8.39022 48.6166 13.2874 53.7613L14.3525 54.8803L14.9373 53.4504C17.3257 47.6107 23.0647 43.5 29.75 43.5H38.25C44.9353 43.5 50.6743 47.6107 53.0627 53.4504ZM34 62.625C39.4818 62.625 44.5958 61.0873 48.9478 58.4148H49.8943L49.6566 57.2198C48.5956 51.8857 43.8884 47.875 38.25 47.875H29.75C24.1116 47.875 19.4044 51.8857 18.3434 57.2198L18.2089 57.8963L18.7935 58.2624C23.2107 61.0283 28.4141 62.625 34 62.625ZM57.3345 57.3345C51.1458 63.5232 42.7521 67 34 67C25.2479 67 16.8542 63.5232 10.6655 57.3345C4.47678 51.1458 1 42.7521 1 34C1 25.2479 4.47678 16.8542 10.6655 10.6655C16.8542 4.47678 25.2479 1 34 1C42.7521 1 51.1458 4.47678 57.3345 10.6655C63.5232 16.8542 67 25.2479 67 34C67 42.7521 63.5232 51.1458 57.3345 57.3345ZM29.5364 31.0261C30.7202 32.2099 32.3258 32.875 34 32.875C35.6742 32.875 37.2798 32.2099 38.4636 31.0261C39.6474 29.8423 40.3125 28.2367 40.3125 26.5625C40.3125 24.8883 39.6474 23.2827 38.4636 22.0989C37.2798 20.9151 35.6742 20.25 34 20.25C32.3258 20.25 30.7202 20.9151 29.5364 22.0989C28.3526 23.2827 27.6875 24.8883 27.6875 26.5625C27.6875 28.2367 28.3526 29.8423 29.5364 31.0261ZM26.4428 34.1197C24.4385 32.1154 23.3125 29.397 23.3125 26.5625C23.3125 23.728 24.4385 21.0096 26.4428 19.0053C28.4471 17.001 31.1655 15.875 34 15.875C36.8345 15.875 39.5529 17.001 41.5572 19.0053C43.5615 21.0096 44.6875 23.728 44.6875 26.5625C44.6875 29.397 43.5615 32.1154 41.5572 34.1197C39.5529 36.124 36.8345 37.25 34 37.25C31.1655 37.25 28.4471 36.124 26.4428 34.1197Z" stroke="white" stroke-opacity="0.85" stroke-width="2"/>
</svg>
