<svg width="70" height="47" viewBox="0 0 70 47" fill="none" xmlns="http://www.w3.org/2000/svg">
<path d="M18.4547 5.77257L19.3978 5.4401L18.4547 5.77257C18.7932 6.73271 18.9687 7.76607 18.9687 8.8125C18.9687 9.85893 18.7932 10.8923 18.4547 11.8524L19.3978 12.1849L18.4547 11.8524C18.1163 12.8126 17.6233 13.6757 17.0105 14.3958C16.3979 15.1155 15.6795 15.6763 14.9013 16.055C14.1238 16.4334 13.2978 16.625 12.4687 16.625C11.6397 16.625 10.8137 16.4334 10.0362 16.055C9.25802 15.6763 8.53957 15.1155 7.92699 14.3958C7.31418 13.6757 6.82124 12.8126 6.48277 11.8524C6.14429 10.8923 5.96875 9.85893 5.96875 8.8125C5.96875 7.76607 6.14429 6.73271 6.48277 5.77257C6.82124 4.81241 7.31418 3.94929 7.92699 3.22924C8.53956 2.50946 9.25802 1.94873 10.0362 1.56997C10.8137 1.19157 11.6397 1 12.4687 1C13.2978 1 14.1238 1.19157 14.9013 1.56997C15.6795 1.94873 16.3979 2.50946 17.0105 3.22924C17.6233 3.94929 18.1163 4.81241 18.4547 5.77257ZM49.1774 24.7275C49.7119 24.5781 50.2694 24.5 50.8437 24.5H61.6719C65.5693 24.5 69 28.2658 69 33.2855C69 35.6052 67.4298 37.1875 65.8281 37.1875H57.8829C56.6003 31.7935 53.4219 27.2732 49.1774 24.7275ZM50.9019 38.4759L50.9032 38.4804C51.2945 39.7576 51.5 41.1456 51.5 42.5938C51.5 44.6406 50.1307 46 48.75 46H21.25C19.8693 46 18.5 44.6406 18.5 42.5938C18.5 41.1456 18.7055 39.7576 19.0968 38.4804L19.0981 38.4759C20.3562 34.299 23.4363 31.2619 27.07 30.5394L27.07 30.5395L27.0814 30.5371C27.6119 30.4252 28.1665 30.375 28.75 30.375H41.25C41.8335 30.375 42.3881 30.4252 42.9186 30.5371L42.9186 30.5371L42.93 30.5394C46.5637 31.2619 49.6438 34.299 50.9019 38.4759ZM1 33.2855C1 28.2829 4.43181 24.5 8.32812 24.5H8.34375H19.1719C19.7407 24.5 20.2991 24.5786 20.8363 24.7287C16.5927 27.2746 13.4151 31.7944 12.1327 37.1875H4.17187C2.55902 37.1875 1 35.592 1 33.2855ZM59.9325 16.055C59.155 16.4334 58.329 16.625 57.5 16.625C56.671 16.625 55.845 16.4334 55.0675 16.055C54.2893 15.6763 53.5708 15.1155 52.9582 14.3958C52.3454 13.6757 51.8525 12.8126 51.514 11.8524C51.1755 10.8923 51 9.85893 51 8.8125C51 7.76607 51.1755 6.73271 51.514 5.77257C51.8525 4.81241 52.3454 3.94929 52.9582 3.22924C53.5708 2.50946 54.2893 1.94873 55.0675 1.56997C55.845 1.19157 56.671 1 57.5 1C58.329 1 59.155 1.19157 59.9325 1.56997C60.7107 1.94873 61.4292 2.50946 62.0418 3.22924C62.6546 3.94929 63.1475 4.81241 63.486 5.77257L64.4291 5.4401L63.486 5.77257C63.8245 6.73271 64 7.76607 64 8.8125C64 9.85893 63.8245 10.8923 63.486 11.8524L64.4291 12.1849L63.486 11.8524C63.1475 12.8126 62.6546 13.6757 62.0418 14.3958C61.4292 15.1155 60.7107 15.6763 59.9325 16.055ZM41.3095 4.08961C43.0186 6.09782 44 8.85148 44 11.75C44 14.6485 43.0186 17.4022 41.3095 19.4104C39.6046 21.4137 37.3301 22.5 35 22.5C32.6699 22.5 30.3954 21.4137 28.6905 19.4104C26.9814 17.4022 26 14.6485 26 11.75C26 8.85148 26.9814 6.09782 28.6905 4.08961C30.3954 2.08633 32.6699 1 35 1C37.3301 1 39.6046 2.08633 41.3095 4.08961Z" stroke="white" stroke-opacity="0.85" stroke-width="2"/>
</svg>
